<svg width="321" height="304" viewBox="0 0 321 304" fill="none" xmlns="http://www.w3.org/2000/svg">
<g filter="url(#filter0_d_3_3)">
<path opacity="0.15" d="M46.6037 215.214C72.3423 215.214 93.2075 204.207 93.2075 190.629C93.2075 177.051 72.3423 166.044 46.6037 166.044C20.8652 166.044 0 177.051 0 190.629C0 204.207 20.8652 215.214 46.6037 215.214Z" fill="#D6D8E5"/>
<path opacity="0.5" d="M46.066 201.711C60.422 201.711 72.0599 195.572 72.0599 188.001C72.0599 180.429 60.422 174.291 46.066 174.291C31.71 174.291 20.0721 180.429 20.0721 188.001C20.0721 195.572 31.71 201.711 46.066 201.711Z" fill="#EDEFF9"/>
<path d="M45.8198 187.048C49.9133 187.048 53.2318 185.296 53.2318 183.135C53.2318 180.974 49.9133 179.222 45.8198 179.222C41.7262 179.222 38.4077 180.974 38.4077 183.135C38.4077 185.296 41.7262 187.048 45.8198 187.048Z" fill="#EDEFF9"/>
<path d="M53.1929 131.26H38.939V182.442H53.1929V131.26Z" fill="#EDEFF9"/>
<path d="M38.2587 130.68C38.2587 130.68 38.6475 141.205 46.8435 160.083C46.8435 160.083 54.4758 144.881 55.2662 130.36C56.0567 115.839 38.2587 130.68 38.2587 130.68Z" fill="#FFBC00"/>
<path d="M28.2486 91.0533L9.28446 107.913L7.02975 129.928L29.9656 119.421L34.1381 92.5688L28.2486 91.0533Z" fill="#972FFF"/>
<path d="M65.4383 91.0533L84.396 107.913L86.6572 129.928L63.6371 118.693L59.5489 92.5688L65.4383 91.0533Z" fill="#972FFF"/>
<path d="M46.6037 133.338C51.8101 133.338 56.0307 131.112 56.0307 128.365C56.0307 125.619 51.8101 123.393 46.6037 123.393C41.3973 123.393 37.1767 125.619 37.1767 128.365C37.1767 131.112 41.3973 133.338 46.6037 133.338Z" fill="#424956"/>
<path d="M32.311 123.393V118.917H60.8641V123.559L32.311 123.393Z" fill="#494949"/>
<path d="M46.6037 130.929C54.4974 130.929 60.8965 127.552 60.8965 123.387C60.8965 119.222 54.4974 115.845 46.6037 115.845C38.7101 115.845 32.311 119.222 32.311 123.387C32.311 127.552 38.7101 130.929 46.6037 130.929Z" fill="#2B303F"/>
<path d="M46.5584 125.796C56.1911 125.796 64 121.678 64 116.597C64 111.516 56.1911 107.398 46.5584 107.398C36.9257 107.398 29.1168 111.516 29.1168 116.597C29.1168 121.678 36.9257 125.796 46.5584 125.796Z" fill="#EDEFF9"/>
<path d="M65.393 100.211C65.393 100.951 65.393 101.679 65.393 102.384C65.393 102.976 65.393 103.568 65.393 104.16C65.393 104.959 65.3476 105.722 65.3152 106.468C65.3152 107.398 65.2439 108.28 65.1921 109.126C65.1403 109.973 65.0949 110.802 65.0301 111.565C64.7645 114.91 64.771 117.372 64.3174 118.337C61.8489 123.612 53.4974 120.705 49.3768 118.811C47.8542 118.112 46.8499 117.538 46.8499 117.538H46.4742C46.4742 117.538 45.282 118.13 43.5197 118.769C39.1982 120.368 31.4946 123.203 29.3565 118.32C28.9743 117.443 28.592 114.549 28.3588 111.518C28.3005 110.76 28.2486 109.949 28.1968 109.085C28.145 108.221 28.119 107.362 28.0802 106.433C28.0802 105.693 28.0348 104.929 28.0154 104.136C28.0154 103.544 28.0154 102.952 28.0154 102.36V100.187C27.8988 79.5336 30.296 46.5074 38.2134 32.4126C40.5005 28.3339 43.2476 25.8417 46.5325 25.6937H46.9083C50.1478 25.8476 52.9273 28.328 55.2209 32.3889C63.0281 46.4305 65.5355 79.3264 65.393 100.211Z" fill="#EDEFF9"/>
<path d="M46.6491 80.7353C50.2882 80.7353 53.2383 78.0399 53.2383 74.7149C53.2383 71.3899 50.2882 68.6945 46.6491 68.6945C43.01 68.6945 40.0599 71.3899 40.0599 74.7149C40.0599 78.0399 43.01 80.7353 46.6491 80.7353Z" fill="#2B303F"/>
<path d="M46.6491 81.6173C45.1549 81.6173 43.6943 81.2125 42.452 80.454C41.2096 79.6956 40.2414 78.6176 39.6696 77.3563C39.0978 76.0951 38.9482 74.7072 39.2397 73.3683C39.5312 72.0294 40.2507 70.7995 41.3072 69.8342C42.3637 68.8688 43.7098 68.2115 45.1753 67.9451C46.6407 67.6788 48.1597 67.8155 49.5401 68.3379C50.9205 68.8603 52.1004 69.745 52.9305 70.8801C53.7606 72.0152 54.2036 73.3497 54.2036 74.7149C54.2019 76.545 53.4054 78.2998 51.9891 79.5939C50.5727 80.888 48.6521 81.6157 46.6491 81.6173V81.6173ZM46.6491 69.5766C45.5365 69.5754 44.4486 69.8758 43.5229 70.4397C42.5972 71.0036 41.8754 71.8056 41.4487 72.7444C41.0221 73.6832 40.9098 74.7166 41.1261 75.7137C41.3423 76.7108 41.8774 77.6269 42.6637 78.3461C43.4499 79.0653 44.452 79.5553 45.5431 79.754C46.6342 79.9528 47.7652 79.8514 48.7932 79.4626C49.8212 79.0739 50.6999 78.4153 51.3182 77.5702C51.9364 76.7251 52.2664 75.7314 52.2664 74.7149C52.2647 73.3536 51.6725 72.0485 50.6196 71.0854C49.5667 70.1223 48.139 69.5797 46.6491 69.5766V69.5766Z" fill="#424956"/>
<path d="M46.6491 63.0353C50.2882 63.0353 53.2383 60.3399 53.2383 57.0149C53.2383 53.69 50.2882 50.9946 46.6491 50.9946C43.01 50.9946 40.0599 53.69 40.0599 57.0149C40.0599 60.3399 43.01 63.0353 46.6491 63.0353Z" fill="#2B303F"/>
<path d="M46.6491 63.9351C45.1539 63.9363 43.692 63.5324 42.448 62.7745C41.204 62.0167 40.2339 60.9388 39.6602 59.6773C39.0866 58.4158 38.9352 57.0272 39.2251 55.687C39.5151 54.3469 40.2334 53.1153 41.2893 52.1481C42.3452 51.1809 43.6912 50.5215 45.1572 50.2531C46.6232 49.9847 48.1434 50.1195 49.5256 50.6404C50.9078 51.1613 52.09 52.0449 52.9226 53.1795C53.7553 54.3141 54.2011 55.6489 54.2036 57.0149C54.2054 58.8477 53.4106 60.6061 51.994 61.9037C50.5775 63.2013 48.655 63.932 46.6491 63.9351V63.9351ZM46.6491 51.8944C45.5363 51.8932 44.4481 52.1937 43.5222 52.7579C42.5964 53.322 41.8746 54.1245 41.4481 55.0636C41.0217 56.0028 40.9098 57.0364 41.1265 58.0337C41.3433 59.031 41.8791 59.9471 42.666 60.666C43.4529 61.385 44.4555 61.8745 45.547 62.0726C46.6386 62.2706 47.7699 62.1684 48.7977 61.7787C49.8256 61.3891 50.7039 60.7296 51.3213 59.8837C51.9388 59.0378 52.2677 58.0435 52.2664 57.0268C52.2673 56.352 52.1226 55.6837 51.8408 55.06C51.559 54.4363 51.1454 53.8694 50.6238 53.3917C50.1022 52.914 49.4827 52.5349 48.8007 52.2759C48.1187 52.017 47.3876 51.8833 46.6491 51.8825V51.8944Z" fill="#424956"/>
<path d="M65.393 112.116C65.393 112.856 65.393 113.584 65.393 114.294C64.7451 116.248 62.9828 118.118 60.119 119.622C52.694 123.535 40.6819 123.535 33.2245 119.622C30.3608 118.106 28.605 116.23 27.9506 114.294V112.122C28.5985 114.111 30.3478 116.005 33.2504 117.538C40.6819 121.451 52.72 121.451 60.1449 117.538C62.9892 115.987 64.7904 114.099 65.393 112.116Z" fill="#972FFF"/>
<path d="M65.3346 115.561C65.3346 116.354 65.2893 117.124 65.2569 117.864C64.5313 119.711 62.8078 121.469 60.0737 122.901C52.6487 126.82 40.6365 126.82 33.1792 122.901C30.4515 121.457 28.7281 119.687 27.9959 117.828C27.9959 117.088 27.9506 116.325 27.9312 115.537C28.5791 117.467 30.3478 119.302 33.1727 120.794C40.6042 124.713 52.6422 124.713 60.0672 120.794C62.905 119.308 64.6544 117.479 65.3346 115.561Z" fill="#972FFF"/>
<path d="M65.1338 109.446C64.3498 111.18 62.6653 112.832 60.0931 114.182C52.6681 118.095 40.656 118.095 33.1986 114.182C30.607 112.808 28.9225 111.151 28.1385 109.399C28.1903 110.263 28.2422 111.074 28.3005 111.832C29.1363 113.465 30.769 115.005 33.1986 116.289C36.3676 117.867 39.8641 118.819 43.4614 119.083C45.3999 119.255 47.3514 119.269 49.2926 119.125C53.067 118.907 56.744 117.939 60.0672 116.289C62.4774 115.016 64.1036 113.495 64.9459 111.879L65.1338 109.446Z" fill="#972FFF"/>
<path d="M55.1042 32.4007C49.5626 33.9548 43.6383 33.9548 38.0967 32.4007C40.3838 28.322 43.131 25.8298 46.4158 25.6818H46.7916C50.0635 25.8594 52.8106 28.3398 55.1042 32.4007Z" fill="#972FFF"/>
<path d="M48.4567 91.1007H45.2237V129.881H48.4567V91.1007Z" fill="#972FFF"/>
<path opacity="0.4" d="M201.757 226.242L164.179 206.417C161.464 204.984 161.808 202.486 164.937 200.835L189.285 187.995L236.679 212.994L212.331 225.839C209.195 227.491 204.466 227.669 201.757 226.242Z" fill="#D6D8E5"/>
<path d="M204.498 224.768L166.92 204.937C164.211 203.51 164.548 201.012 167.678 199.361L192.032 186.521L239.426 211.52L215.104 224.36C211.942 226.017 207.206 226.195 204.498 224.768Z" fill="#B1B4C4"/>
<path d="M239.42 211.52V210.211L237.23 211.366L239.42 211.52Z" fill="#B1B4C4"/>
<path d="M165.086 202.575V201.243L167.334 202.095L165.086 202.575Z" fill="#B1B4C4"/>
<path d="M204.498 223.454L166.92 203.629C164.211 202.196 164.548 199.704 167.678 198.052L192.032 185.207L239.426 210.211L215.104 223.051C211.942 224.703 207.206 224.886 204.498 223.454Z" fill="#D6D8E5"/>
<path d="M192.149 185.266L186.285 167.483L234.198 192.594L239.42 210.211L192.149 185.266Z" fill="#9EA1AF"/>
<path d="M238.033 210.94L239.42 210.211L237.353 208.702L238.033 210.94Z" fill="#9EA1AF"/>
<path d="M190.639 185.935L184.776 168.152L232.688 193.263L238.027 210.94L190.639 185.935Z" fill="#B1B4C4"/>
<path d="M312.29 240.935L126.801 143.076C124.21 141.702 122.091 138.02 122.091 134.853V3.77295C122.091 0.599974 124.203 -0.856277 126.801 0.517098L312.29 98.3524C314.881 99.7257 317 103.408 317 106.575V237.655C316.981 240.822 314.881 242.279 312.29 240.935Z" fill="#C4C7D6"/>
<path d="M313.223 242.261L315.277 241.177L314.389 235.613L313.223 242.261Z" fill="#C4C7D6"/>
<path d="M121.761 1.3281L123.782 0.25663L126.691 1.778C126.691 1.778 123.594 2.21014 123.516 2.19238C123.439 2.17462 121.761 1.3281 121.761 1.3281Z" fill="#B1B4C4"/>
<path d="M310.566 241.805L125.104 143.97C122.512 142.596 120.394 138.92 120.394 135.747V4.66682C120.394 1.49977 122.499 0.0435198 125.104 1.4169L310.566 99.2522C313.158 100.626 315.277 104.308 315.277 107.475V238.567C315.277 241.722 313.171 243.178 310.566 241.805Z" fill="#E4E7F2"/>
<path d="M310.242 241.977L124.773 144.141C122.182 142.768 120.063 139.086 120.063 135.919V4.8385C120.063 1.67144 122.175 0.215193 124.773 1.58857L310.242 99.4534C312.834 100.821 314.953 104.503 314.953 107.676V238.721C314.953 241.894 312.84 243.35 310.242 241.977Z" fill="#D6D8E5"/>
<path d="M312.4 234.003L122.454 133.788L122.519 5.36535C122.519 4.05117 123.529 3.5184 124.773 4.18141L310.242 102.011C310.896 102.4 311.441 102.925 311.832 103.542C312.224 104.158 312.452 104.851 312.497 105.563L312.4 234.003Z" fill="white"/>
<path d="M197.429 60.4306L136.578 28.3339C136.297 28.1489 136.068 27.9064 135.908 27.6257C135.748 27.3451 135.663 27.0341 135.658 26.7178V22.8404C135.658 22.2484 136.066 21.9347 136.578 22.201L197.429 54.2978C197.709 54.4837 197.938 54.7265 198.097 55.0069C198.257 55.2873 198.343 55.5978 198.349 55.9139V59.7913C198.349 60.4129 197.935 60.7029 197.429 60.4306Z" fill="#E9EAF2"/>
<path d="M181.802 61.36L136.857 37.6515C136.575 37.4684 136.344 37.2273 136.183 36.9475C136.022 36.6678 135.935 36.3574 135.93 36.0414V34.1115C135.93 33.5196 136.345 33.1999 136.857 33.4722L181.802 57.1807C182.08 57.366 182.307 57.6081 182.464 57.8876C182.622 58.1672 182.705 58.4765 182.709 58.7908V60.7207C182.709 61.3422 182.307 61.6323 181.802 61.36Z" fill="#E9EAF2"/>
<path d="M181.802 68.6709L136.857 44.992C136.575 44.8089 136.344 44.5677 136.183 44.288C136.022 44.0082 135.935 43.6978 135.93 43.3818V41.4401C135.93 40.8482 136.345 40.5285 136.857 40.8008L181.802 64.5271C182.082 64.7111 182.312 64.9526 182.471 65.2322C182.631 65.5119 182.717 65.8218 182.722 66.1372V68.0671C182.709 68.6709 182.307 68.9491 181.802 68.6709Z" fill="#E9EAF2"/>
<path d="M173.321 71.5242L136.857 52.2851C136.575 52.102 136.344 51.8608 136.183 51.5811C136.022 51.3013 135.935 50.9909 135.93 50.6749V48.7451C135.93 48.1531 136.345 47.8334 136.857 48.1057L173.321 67.3389C173.603 67.5236 173.833 67.7659 173.994 68.0465C174.155 68.3272 174.242 68.6383 174.247 68.955V70.8848C174.247 71.5064 173.833 71.7906 173.321 71.5242Z" fill="#972FFF"/>
<path d="M197.429 137.245L136.578 105.148C136.297 104.963 136.068 104.721 135.908 104.44C135.748 104.159 135.663 103.848 135.658 103.532V99.6547C135.658 99.0331 136.066 98.749 136.578 99.0154L197.429 131.112C197.709 131.298 197.938 131.541 198.097 131.821C198.257 132.102 198.343 132.412 198.349 132.728V136.606C198.349 137.227 197.935 137.511 197.429 137.245Z" fill="#E9EAF2"/>
<path d="M181.802 138.174L136.857 114.495C136.575 114.311 136.345 114.068 136.184 113.788C136.023 113.507 135.936 113.196 135.93 112.879V110.95C135.93 110.328 136.345 110.044 136.857 110.316L181.802 133.995C182.082 134.181 182.31 134.424 182.47 134.704C182.63 134.985 182.716 135.295 182.722 135.611V137.541C182.709 138.157 182.307 138.441 181.802 138.174Z" fill="#E9EAF2"/>
<path d="M181.802 145.491L136.857 121.783C136.576 121.599 136.345 121.358 136.184 121.078C136.024 120.798 135.937 120.488 135.93 120.172V118.243C135.93 117.651 136.345 117.337 136.857 117.609L181.802 141.288C182.082 141.474 182.31 141.717 182.47 141.997C182.63 142.278 182.716 142.588 182.722 142.904V144.834C182.709 145.473 182.307 145.757 181.802 145.491Z" fill="#E9EAF2"/>
<path d="M173.321 148.333L136.857 129.099C136.575 128.915 136.344 128.673 136.183 128.392C136.022 128.111 135.936 127.8 135.93 127.483V125.553C135.93 124.932 136.345 124.648 136.857 124.92L173.321 144.153C173.603 144.338 173.833 144.58 173.994 144.861C174.155 145.141 174.242 145.453 174.247 145.769V147.699C174.247 148.321 173.833 148.587 173.321 148.333Z" fill="#972FFF"/>
<path d="M213.711 146.776C213.711 146.776 220.423 151.926 230.116 144.893C237.036 139.708 243.223 142.667 246.67 144.443C250.117 146.219 255.093 147.308 264.572 162.948C264.572 162.948 267.656 167.85 272.748 170.537C277.841 173.225 280.29 171.911 284.294 166.394C288.298 160.876 290.922 154.767 298.282 158.757V214.219L213.05 169.306V146.415L213.711 146.776Z" fill="#F5F6FF"/>
<path d="M195.188 123.263L136.876 92.48C136.594 92.2953 136.364 92.053 136.203 91.7724C136.042 91.4918 135.955 91.1806 135.95 90.8639V60.1228C135.95 59.5308 136.364 59.2171 136.876 59.4835L195.188 90.266C195.469 90.4507 195.7 90.693 195.861 90.9736C196.022 91.2542 196.108 91.5654 196.114 91.8821V122.635C196.114 123.245 195.699 123.529 195.188 123.263Z" fill="#E9EAF2"/>
<path d="M213.05 145.485V169.294L298.282 214.249V158.787" stroke="#08080B" stroke-width="0.31" stroke-miterlimit="10"/>
<path d="M246.547 144.722V186.905" stroke="#08080B" stroke-width="0.31" stroke-miterlimit="10"/>
<path d="M272.625 171.402V200.657" stroke="#08080B" stroke-width="0.31" stroke-miterlimit="10"/>
<path d="M213.05 146.415C228.172 154.98 230.31 135.617 246.787 144.307C263.263 152.997 260.989 164.322 273.15 170.739C285.311 177.156 285.596 152.092 298.282 158.787" stroke="#08080B" stroke-width="1.53" stroke-miterlimit="10"/>
<path d="M247.965 146.979C248.749 146.566 248.748 145.223 247.962 143.98C247.177 142.737 245.905 142.065 245.121 142.478C244.337 142.892 244.338 144.235 245.123 145.478C245.909 146.721 247.181 147.393 247.965 146.979Z" fill="#972FFF"/>
<path d="M300.893 161.687C301.681 161.274 301.683 159.926 300.897 158.677C300.112 157.429 298.837 156.752 298.049 157.165C297.262 157.579 297.26 158.926 298.045 160.175C298.831 161.424 300.106 162.101 300.893 161.687Z" fill="#972FFF"/>
<path d="M275.128 173.831C275.916 173.417 275.918 172.07 275.132 170.821C274.347 169.572 273.072 168.895 272.284 169.309C271.496 169.723 271.495 171.07 272.28 172.319C273.065 173.567 274.341 174.244 275.128 173.831Z" fill="#972FFF"/>
<path d="M214.473 148.671C215.257 148.257 215.255 146.914 214.47 145.671C213.685 144.428 212.412 143.756 211.628 144.169C210.844 144.583 210.845 145.926 211.631 147.169C212.416 148.412 213.689 149.084 214.473 148.671Z" fill="#972FFF"/>
<path d="M215.454 105.509L211.962 103.668C211.68 103.484 211.45 103.241 211.289 102.961C211.128 102.68 211.041 102.369 211.035 102.052V86.6609C211.035 86.0393 211.45 85.7552 211.962 86.0216L215.454 87.8685C215.735 88.0467 215.967 88.2824 216.131 88.5567C216.296 88.8311 216.387 89.1366 216.4 89.4491V104.87C216.4 105.492 215.966 105.776 215.454 105.509Z" fill="#E9EAF2"/>
<path d="M223.527 109.754L220.035 107.907C219.753 107.724 219.522 107.483 219.361 107.203C219.2 106.923 219.113 106.613 219.108 106.297V74.9221C219.108 74.3301 219.523 74.0105 220.035 74.2828L223.527 76.1297C223.809 76.3144 224.039 76.5567 224.2 76.8373C224.361 77.1179 224.448 77.4291 224.453 77.7458V109.12C224.427 109.736 224.013 110.02 223.527 109.754Z" fill="#972FFF"/>
<path d="M239.588 118.237L236.096 116.396C235.813 116.212 235.582 115.97 235.421 115.689C235.26 115.408 235.174 115.097 235.17 114.78V86.4596C235.17 85.8381 235.584 85.5539 236.096 85.8203L239.588 87.6613C239.87 87.846 240.101 88.0883 240.262 88.369C240.422 88.6496 240.509 88.9607 240.515 89.2774V117.603C240.515 118.225 240.1 118.509 239.588 118.237Z" fill="#E9EAF2"/>
<path d="M247.635 122.481L244.143 120.64C243.861 120.455 243.631 120.213 243.47 119.933C243.309 119.652 243.222 119.341 243.217 119.024V95.5582C243.217 94.9663 243.631 94.6525 244.143 94.9189L247.635 96.7659C247.917 96.949 248.148 97.1901 248.309 97.4699C248.47 97.7496 248.557 98.06 248.562 98.376V121.842C248.562 122.469 248.147 122.753 247.635 122.481Z" fill="#972FFF"/>
<path d="M263.658 130.935L260.159 129.093C259.879 128.909 259.649 128.666 259.489 128.385C259.329 128.105 259.244 127.794 259.239 127.477V115.881C259.239 115.253 259.648 114.969 260.159 115.241L263.658 117.082C263.938 117.268 264.167 117.511 264.326 117.791C264.486 118.072 264.572 118.382 264.578 118.698V130.295C264.578 130.917 264.163 131.201 263.658 130.935Z" fill="#E9EAF2"/>
<path d="M271.699 135.179L268.232 133.332C267.95 133.149 267.72 132.908 267.559 132.628C267.398 132.348 267.311 132.038 267.306 131.722V92.2787C267.306 91.6512 267.72 91.3671 268.232 91.6394L271.724 93.4804C272.007 93.6648 272.237 93.907 272.398 94.1877C272.559 94.4684 272.646 94.7797 272.651 95.0965V134.54C272.625 135.161 272.21 135.445 271.699 135.179Z" fill="#972FFF"/>
<path d="M291.324 145.533L287.831 143.686C287.549 143.503 287.319 143.261 287.158 142.982C286.997 142.702 286.91 142.391 286.905 142.075V130.473C286.905 129.851 287.32 129.567 287.831 129.833L291.324 131.68C291.606 131.864 291.838 132.106 291.999 132.387C292.16 132.668 292.246 132.979 292.25 133.296V144.893C292.25 145.515 291.835 145.799 291.324 145.533Z" fill="#E9EAF2"/>
<path d="M299.371 149.771L295.878 147.924C295.596 147.74 295.364 147.498 295.203 147.217C295.042 146.937 294.956 146.625 294.952 146.308V130.917C294.952 130.295 295.367 130.011 295.878 130.277L299.371 132.118C299.652 132.303 299.883 132.545 300.044 132.826C300.205 133.107 300.291 133.418 300.297 133.735V149.155C300.297 149.771 299.882 150.043 299.371 149.771Z" fill="#972FFF"/>
<path opacity="0.4" d="M67.9716 294.804L39.0492 279.567C35.7708 277.832 36.179 274.831 39.9692 272.818L54.6507 265.069C58.4345 263.075 64.1425 262.838 67.4403 264.614L96.3628 279.875C99.6412 281.603 99.233 284.611 95.4427 286.617L80.7612 294.366C76.9775 296.332 71.2694 296.58 67.9716 294.804Z" fill="#D6D8E5"/>
<path d="M111.44 275.784V238.898L49.6813 232.547V269.663C49.6424 270.8 50.3292 271.883 51.8842 272.688L80.8066 287.949C84.085 289.678 89.8125 289.459 93.5962 287.464L108.278 279.715C110.409 278.59 111.472 277.14 111.407 275.784H111.44Z" fill="#D6D8E5"/>
<path d="M111.401 242.924V238.898H106.652L80.2753 224.981C76.9969 223.247 71.2695 223.466 67.4857 225.461L52.8042 233.239C52.5431 233.375 52.2901 233.523 52.0462 233.683L49.6813 232.576C49.6813 232.576 49.6813 236.832 49.6813 236.975C49.6424 238.099 50.3292 239.183 51.8842 239.988L80.8066 255.243C84.085 256.971 89.8125 256.752 93.5962 254.757L108.278 247.014C110.474 245.83 111.517 244.35 111.394 242.953L111.401 242.924Z" fill="#EDF0F9"/>
<path d="M80.8066 250.827L51.8841 235.572C48.6057 233.843 49.0139 230.836 52.8042 228.823L67.4857 221.08C71.2694 219.079 76.9969 218.866 80.2753 220.595L109.198 235.85C112.476 237.578 112.068 240.586 108.278 242.598L93.5962 250.341C89.8124 252.342 84.085 252.555 80.8066 250.827Z" fill="#E2E5F2"/>
<path d="M74.2887 230.001V228.533H73.3039L72.9993 228.355C72.0306 227.906 70.9596 227.672 69.8732 227.672C68.7868 227.672 67.7158 227.906 66.7471 228.355C66.5619 228.454 66.3863 228.567 66.2223 228.693L65.4513 228.533V230.001C65.4875 230.357 65.6266 230.697 65.8543 230.987C66.082 231.277 66.3901 231.507 66.7471 231.653C67.7158 232.102 68.7868 232.336 69.8732 232.336C70.9596 232.336 72.0306 232.102 72.9993 231.653C73.3563 231.508 73.6642 231.278 73.8909 230.988C74.1177 230.697 74.2551 230.357 74.2887 230.001V230.001Z" fill="#6E48E5"/>
<path d="M69.87 230.865C72.3104 230.865 74.2887 229.821 74.2887 228.533C74.2887 227.245 72.3104 226.201 69.87 226.201C67.4296 226.201 65.4513 227.245 65.4513 228.533C65.4513 229.821 67.4296 230.865 69.87 230.865Z" fill="#972FFF"/>
<path d="M85.2512 236.199C85.0102 236.692 84.5918 237.095 84.0655 237.342C83.0971 237.788 82.0274 238.021 80.9426 238.021C79.8579 238.021 78.7882 237.788 77.8197 237.342C77.2935 237.095 76.8751 236.692 76.6341 236.199C76.3101 235.441 76.7118 234.63 77.8197 234.038C78.7882 233.592 79.8579 233.359 80.9426 233.359C82.0274 233.359 83.0971 233.592 84.0655 234.038C85.1799 234.601 85.5752 235.412 85.2512 236.199Z" fill="#5E42D3"/>
<path d="M85.2512 236.199C85.0102 236.692 84.5918 237.095 84.0656 237.342C83.0971 237.788 82.0274 238.021 80.9427 238.021C79.8579 238.021 78.7882 237.788 77.8198 237.342C77.5028 237.321 77.2063 237.191 76.9898 236.978C76.7734 236.766 76.653 236.486 76.653 236.196C76.653 235.906 76.7734 235.626 76.9898 235.414C77.2063 235.201 77.5028 235.071 77.8198 235.051C78.7882 234.604 79.8579 234.372 80.9427 234.372C82.0274 234.372 83.0971 234.604 84.0656 235.051C84.5929 235.298 85.0114 235.704 85.2512 236.199V236.199Z" fill="#972FFF"/>
<path d="M95.6371 241.45V239.982H94.6523L94.3478 239.804C93.3791 239.355 92.308 239.121 91.2217 239.121C90.1353 239.121 89.0642 239.355 88.0955 239.804C87.912 239.903 87.7366 240.014 87.5707 240.136L86.7997 239.982V241.45C86.8359 241.805 86.975 242.146 87.2027 242.436C87.4305 242.726 87.7386 242.956 88.0955 243.101C89.0642 243.551 90.1353 243.785 91.2217 243.785C92.308 243.785 93.3791 243.551 94.3478 243.101C94.7047 242.957 95.0126 242.727 95.2394 242.437C95.4662 242.146 95.6035 241.805 95.6371 241.45Z" fill="#6E48E5"/>
<path d="M91.2184 242.314C93.6588 242.314 95.6371 241.27 95.6371 239.982C95.6371 238.694 93.6588 237.649 91.2184 237.649C88.778 237.649 86.7997 238.694 86.7997 239.982C86.7997 241.27 88.778 242.314 91.2184 242.314Z" fill="#972FFF"/>
<path d="M42.3081 224.069C42.1332 225.449 40.3644 231.404 40.7143 233.446C41.0642 235.489 47.2581 238.898 47.2581 238.898L48.1134 235.406L44.7054 232.351L45.6254 226.568L42.3081 224.069Z" fill="#FFCEA9"/>
<path d="M47.0702 218.203C46.4721 217.948 45.7923 217.903 45.1602 218.077C44.5282 218.251 43.9881 218.63 43.6428 219.144C42.7357 220.518 41.7963 225.218 41.6991 226.023C41.6991 226.023 42.9949 227.627 44.8803 227.361L47.0702 218.203Z" fill="#EDEDED"/>
<path d="M54.1 284.599C55.4404 284.936 56.8721 284.776 58.0846 284.155C59.0435 284.184 64.2591 282.142 64.9653 283.853C65.6132 285.356 63.3261 286.742 62.121 287.008C59.4905 287.6 57.5468 288.784 56.4843 288.997C55.7003 289.145 54.6766 289.246 54.0546 288.677C53.2966 288.002 53.3614 285.493 54.1 284.599Z" fill="#38226D"/>
<path d="M56.4843 288.577C57.5468 288.375 59.4906 287.174 62.121 286.594C63.1318 286.369 64.8746 285.362 65.0496 284.155C65.2828 285.534 63.2484 286.759 62.121 287.008C59.4906 287.6 57.5468 288.784 56.4843 288.997C55.7003 289.145 54.6766 289.246 54.0546 288.677C53.8843 288.511 53.7638 288.307 53.7048 288.085C54.0935 288.361 54.5475 288.549 55.0304 288.634C55.5132 288.719 56.0113 288.7 56.4843 288.577Z" fill="#7B19F9"/>
<path d="M45.6513 281.13C46.9909 281.468 48.4226 281.311 49.6359 280.692C50.5948 280.692 55.804 278.679 56.5167 280.39C57.1646 281.887 54.8775 283.273 53.6724 283.545C51.0419 284.137 49.0917 285.321 48.0356 285.528C47.2452 285.676 46.228 285.777 45.5995 285.214C44.8479 284.534 44.9127 282.024 45.6513 281.13Z" fill="#38226D"/>
<path d="M48.0356 285.114C49.0917 284.906 51.0419 283.711 53.6724 283.125C54.6831 282.906 56.426 281.893 56.6009 280.692C56.8341 282.071 54.7997 283.29 53.6724 283.545C51.0419 284.137 49.0917 285.321 48.0356 285.528C47.2452 285.676 46.228 285.777 45.5995 285.214C45.4352 285.045 45.3175 284.842 45.2561 284.622C45.646 284.896 46.1001 285.082 46.5825 285.167C47.0649 285.253 47.5623 285.234 48.0356 285.114V285.114Z" fill="#7B19F9"/>
<path d="M45.5477 268.195C45.7721 266.427 46.1734 264.681 46.7463 262.98C46.7463 262.98 46.3899 258.481 46.2085 254.213C46.0077 249.37 44.1676 245.108 45.6189 241.249L61.9655 244.57C61.9655 244.57 60.9807 263.874 60.7604 266.206C60.6418 268.026 60.3973 269.837 60.0283 271.629C59.2832 275.376 58.0846 284.291 58.0846 284.291C56.3612 285.208 54.087 284.699 54.087 284.699C54.087 284.699 54.2166 273.452 54.3267 270.729C54.4628 267.431 54.573 267.68 54.573 267.68L54.0287 259.469L53.6788 255.385C53.6788 255.385 53.2253 258.38 52.9273 261.062C52.6746 263.394 52.0591 265.508 51.3658 269.853C50.7698 273.624 49.7979 281.201 49.7979 281.201C48.068 282.118 45.7226 281.355 45.7226 281.355C45.7226 281.355 45.0812 271.463 45.5477 268.195Z" fill="#972FFF"/>
<path d="M47.9449 218.28C49.1954 218.339 50.1219 218.629 50.2774 218.28C50.4072 217.693 50.5002 217.1 50.556 216.504C50.4134 216.173 50.2903 215.817 50.2903 215.817C48.7289 214.941 48.2365 213.396 48.0291 211.597C47.6793 208.524 49.4934 205.837 52.856 205.517C56.0178 205.215 58.3503 207.246 58.9658 210.034C59.3027 211.407 59.97 214.012 59.0694 216.273C58.5641 217.54 57.9162 218.546 57.2683 218.742C56.6414 218.723 56.0162 218.672 55.3958 218.588V218.588C55.3958 218.588 55.2274 219.44 55.1107 219.985C54.9941 220.529 55.0395 220.825 56.2316 221.494C57.4238 222.163 54.424 223.566 52.4802 223.43C50.5365 223.294 48.3207 222.217 47.7117 221.062C47.0184 219.766 47.0767 218.244 47.9449 218.28Z" fill="#FFCEA9"/>
<path d="M49.7331 218.44C49.3897 219.227 50.2644 220.216 52.6033 220.855C54.9423 221.494 55.1561 220.666 55.1561 220.666C56.7098 221.301 58.2238 222.015 59.6914 222.803C61.0973 223.702 61.7193 226.295 61.9072 230.676C62.1275 235.743 62.147 243.261 61.9591 244.558C61.9591 244.558 59.3674 246.926 55.9789 246.695C52.5904 246.464 46.9795 243.735 45.6124 241.633C45.6513 237.188 46.2215 236.465 45.431 233.908C43.6299 228.048 42.6839 225.62 43.5586 221.755C44.2778 218.54 45.2885 218.144 46.6815 218.173C47.7033 218.211 48.722 218.3 49.7331 218.44V218.44Z" fill="#F4F4F4"/>
<path d="M67.1941 234.879C64.434 235.512 63.7926 233.926 63.4298 232.612C62.5486 229.427 62.0821 226.556 61.4278 224.75C60.6568 222.619 59.8469 222.282 58.7195 221.867C57.4237 221.376 56.2445 222.406 56.6851 225.117C57.2288 228.263 58.0743 231.359 59.2119 234.37C59.5553 235.358 60.3198 237.117 61.4731 237.969C62.892 239.017 65.0366 238.975 68.2761 238.241C69.6561 237.922 71.1722 237.17 73.7833 236.057C74.483 235.761 75.0273 235.56 76.3749 234.985C77.7281 234.433 78.9135 233.588 79.8282 232.523C80.5345 231.588 80.6252 231.149 80.4761 230.936C80.3271 230.723 79.9773 230.729 79.6015 231.126C79.0561 231.788 78.3845 232.356 77.6189 232.801C77.6189 232.801 78.4871 231.978 78.96 231.445C79.3826 230.972 79.7335 230.448 80.0032 229.889C80.2494 229.344 79.7375 228.604 79.3553 228.995C78.973 229.385 78.7786 229.776 78.0595 230.558C77.6781 230.975 77.243 231.348 76.7637 231.67C77.206 231.125 77.5983 230.547 77.9364 229.942C78.2415 229.47 78.3921 228.927 78.3705 228.379C78.3705 228.095 77.9104 227.757 77.4958 228.296C77.0955 229.036 76.5996 229.73 76.0186 230.362C75.3707 230.954 74.8523 231.297 74.8394 231.132C74.8264 230.966 75.2152 230.64 75.4419 229.948C75.6687 229.255 75.4419 228.515 75.0208 228.438C74.5997 228.361 74.6839 228.379 74.3729 229.03C73.9087 229.698 73.4911 230.392 73.1224 231.108C72.9057 231.774 72.5168 232.384 71.9886 232.884C71.3083 233.547 69.8116 234.275 67.1941 234.879Z" fill="#FFCEA9"/>
<path d="M57.6958 221.429C59.5359 221.181 60.8382 221.938 61.6481 224.484C62.4579 227.029 63.0281 229.095 63.0281 229.095C62.3013 230.055 61.2002 230.724 59.9505 230.966C57.7477 231.457 56.9572 230.492 56.9572 230.492C56.9572 230.492 56.3482 227.829 55.9659 226.011C55.5837 224.194 55.4217 221.737 57.6958 221.429Z" fill="#EDEDED"/>
<path d="M58.8491 209.637C58.8491 209.637 61.7517 205.6 55.4541 204.777C50.9188 204.185 47.9967 206.849 47.6792 209.744C47.3553 212.508 49.2213 215.379 50.5624 216.516C51.8844 216.823 53.2844 216.669 54.4887 216.084C54.5659 215.332 54.5962 214.577 54.5794 213.822C54.5794 213.822 52.3442 209.56 58.8491 209.637Z" fill="#3A2C6D"/>
<path opacity="0.4" d="M247.875 286.99C256.688 286.99 263.833 283.221 263.833 278.572C263.833 273.923 256.688 270.155 247.875 270.155C239.062 270.155 231.917 273.923 231.917 278.572C231.917 283.221 239.062 286.99 247.875 286.99Z" fill="#D6D8E5"/>
<path d="M247.739 197.348C248.387 196.383 253.441 195.744 255.099 199.645C255.747 201.125 255.631 204.907 256.155 207.281C256.68 209.655 257.918 211.005 258.365 212.929C258.812 214.853 258.086 218.085 253 218.659C247.914 219.233 244.007 217.599 242.809 216.119C241.61 214.639 241.584 211.49 242.809 209.797C244.033 208.104 245.005 206.737 244.973 204.534L247.739 197.348Z" fill="#3A2C6D"/>
<path d="M251.069 196.679C251.069 196.679 247.273 195.678 244.973 197.549C244.215 198.189 243.663 199.006 243.378 199.912C243.092 200.818 243.084 201.777 243.353 202.687C243.657 203.783 244.273 205.274 245.225 205.357C246.178 205.44 251.069 196.679 251.069 196.679Z" fill="#3A2C6D"/>
<path d="M252.521 206.133C252.521 206.133 252.268 209.992 252.346 210.277C252.423 210.561 254.004 210.869 254.451 211.176C254.898 211.484 252.151 215.433 250.758 216.013C249.365 216.593 245.044 215.107 244.739 213.148C244.467 211.336 245.977 209.933 246.56 209.442C246.956 209.408 247.354 209.398 247.752 209.412L247.882 207.542C249.774 206.991 252.521 206.133 252.521 206.133Z" fill="#FFCEA9"/>
<path d="M242.316 213.432C242.316 213.319 241.668 213.633 241.668 213.639C241.668 213.645 241.364 223.554 240.832 224.454C239.478 226.556 235.895 230.119 235.805 230.516C235.539 231.7 236.304 230.64 237.535 230.516C238.228 230.439 242.303 226.674 243.217 225.816L243.275 225.845V225.751L243.392 225.638C243.415 225.37 243.415 225.101 243.392 224.833C245.109 214.065 243.022 213.349 242.316 213.432Z" fill="#FFCEA9"/>
<path d="M253.097 210.655C254.289 210.821 255.643 211.401 255.831 211.993C256.322 214.135 256.206 216.356 255.494 218.446C254.464 220.932 253.771 222.513 253.175 223.584C253.175 223.584 248.037 225.597 243.891 223.247C243.891 223.247 243.605 220.583 243.586 219.156C239.763 216.107 243.035 212.348 246.275 209.43C246.663 209.398 247.053 209.398 247.441 209.43C247.441 209.43 244.551 212.556 246.56 214.332C250.868 213.112 251.724 211.336 253.097 210.655Z" fill="#F4F4F4"/>
<path d="M244.623 201.344C245.044 198.863 247.007 196.987 249.806 197.135C250.934 197.19 252.014 197.569 252.894 198.216C253.773 198.864 254.408 199.747 254.707 200.743C255.007 201.738 254.956 202.794 254.562 203.761C254.169 204.728 253.452 205.558 252.514 206.133C252.418 206.508 252.272 206.872 252.08 207.216C251.089 208.27 248.452 208.939 247.584 208.951C246.832 208.951 246.184 208.317 245.478 207.252C244.014 205.032 244.389 202.569 244.623 201.344Z" fill="#FFCEA9"/>
<path d="M250.681 197.182C252.624 197.531 254.257 198.04 254.795 199.799C255.158 201.018 255.637 203.35 255.183 204.304L254.898 205.008L252.521 206.133C252.521 206.133 251.406 205.286 251.756 202.806C251.743 202.471 251.626 202.147 251.419 201.871C251.27 201.636 251.159 201.382 251.089 201.119C250.806 200.449 250.255 199.902 249.547 199.591C247.778 198.686 245.186 199.467 244.824 199.799C245.324 198.816 246.179 198.02 247.245 197.544C248.311 197.067 249.524 196.94 250.681 197.182Z" fill="#3A2C6D"/>
<path d="M254.257 275.678C253.259 276.418 251.711 275.908 251.665 275.974C250.504 276.883 249.289 277.733 248.024 278.519C247.376 278.963 246.437 279.561 246.612 280.413C246.923 281.947 249.605 281.479 250.616 281.005C251.626 280.532 252.456 279.762 253.415 279.229C254.095 278.845 254.769 278.637 254.879 277.856C254.911 277.365 254.432 275.66 254.257 275.678Z" fill="#38226D"/>
<path d="M254.84 277.525C254.704 278.282 254.043 278.49 253.363 278.874C252.391 279.425 251.536 280.224 250.525 280.692C249.514 281.159 247.253 281.55 246.599 280.461C246.955 281.935 249.592 281.473 250.59 281.005C251.588 280.538 252.43 279.762 253.389 279.229C254.069 278.845 254.743 278.638 254.853 277.856C254.858 277.745 254.854 277.635 254.84 277.525V277.525Z" fill="#7B19F9"/>
<path d="M247.279 274.405C246.366 275.086 244.992 274.701 244.927 274.766C243.863 275.593 242.751 276.367 241.597 277.087C241.027 277.495 240.139 278.04 240.301 278.821C240.586 280.224 243.042 279.792 243.975 279.366C244.908 278.939 245.653 278.223 246.534 277.726C247.182 277.371 247.771 277.187 247.869 276.465C247.933 276.027 247.441 274.387 247.279 274.405Z" fill="#38226D"/>
<path d="M247.862 276.175C247.739 276.868 247.13 277.057 246.508 277.406C245.62 277.915 244.836 278.643 243.916 279.076C242.996 279.508 240.923 279.863 240.321 278.862C240.645 280.212 243.061 279.792 243.981 279.366C244.901 278.939 245.659 278.223 246.54 277.726C247.188 277.371 247.778 277.187 247.875 276.465C247.883 276.368 247.879 276.271 247.862 276.175V276.175Z" fill="#7B19F9"/>
<path d="M241.914 232.138C242.355 229.001 243.618 224.442 243.618 224.442C244.813 224.952 246.105 225.244 247.422 225.301C249.353 225.295 251.279 225.124 253.175 224.792C253.793 225.78 254.47 226.736 255.203 227.657C256.194 228.912 258.119 231.659 257.652 236.459C257.348 239.597 255.423 252.922 255.423 252.922C256.173 255.162 256.572 257.488 256.609 259.831C256.427 262.616 256.024 265.386 255.404 268.118L254.257 275.678C254.257 275.678 252.728 276.69 251.665 275.974L251.801 268.574C251.672 266.763 251.471 264.093 251.348 262.388C251.141 259.606 250.596 255.195 250.441 254.1C250.285 253.005 249.897 251.069 249.709 248.915C249.521 246.76 248.64 235.791 248.64 235.791L248.517 237.845C248.517 237.845 248.393 241.177 247.869 245.292C247.344 249.406 247.162 251.211 247.162 251.211C247.66 252.041 248.008 252.939 248.193 253.869C248.283 254.757 249.391 261.79 248.73 265.365L247.363 274.464C247.024 274.679 246.634 274.817 246.225 274.866C245.816 274.916 245.4 274.875 245.011 274.748L244.208 265.579C243.67 262.092 242.53 254.698 242.355 253.739C241.966 251.802 241.737 249.841 241.668 247.873C241.383 243.895 241.474 235.27 241.914 232.138Z" fill="#FFCEA9"/>
<path d="M253.175 223.584L256.129 229.001C256.129 229.001 260.665 235.027 255.967 250.519L256.842 255.302C256.842 255.302 248.005 260.482 242.089 255.302C242.089 255.302 240.042 240.982 241.13 234.382C241.74 230.589 242.66 226.843 243.884 223.176C243.884 223.176 245.335 224.638 252.786 223.673" fill="#972FFF"/>
<path d="M246.275 209.43C246.275 209.43 243.929 208.773 241.435 213.526L242.368 214.036C242.368 214.036 244.823 210.649 246.275 209.43Z" fill="#EDEDED"/>
<path d="M227.959 235.187L238.053 229.829L245.296 233.648L235.202 239.011L227.959 235.187Z" fill="#F4F4F4"/>
<path d="M236.751 230.22C236.118 230.278 235.505 230.46 234.956 230.753C234.754 230.914 234.537 231.058 234.308 231.185C234.211 231.226 234.114 231.286 234.01 231.327C233.856 231.379 233.716 231.462 233.602 231.57C233.489 231.722 233.428 231.901 233.427 232.085C233.375 232.304 233.362 232.53 233.388 232.754C233.479 233.085 233.854 233.056 234.036 232.825C234.134 232.709 234.191 232.569 234.198 232.422C234.203 232.282 234.245 232.146 234.319 232.023C234.394 231.901 234.498 231.796 234.625 231.718L237.036 230.35C237.008 230.305 236.966 230.269 236.915 230.245C236.864 230.222 236.807 230.213 236.751 230.22Z" fill="#FFCEA9"/>
<path d="M255.954 213.704C255.624 212.449 254.549 212.852 253.622 212.118C251.477 214.894 252.903 222.4 253.194 223.199L244.953 228L244.396 228.314C243.458 228.877 242.421 229.289 241.331 229.533C240.508 229.622 240.081 230.682 239.2 230.777C239.132 230.779 239.067 230.799 239.013 230.835C238.958 230.87 238.916 230.92 238.892 230.977C238.867 231.035 238.862 231.097 238.877 231.158C238.891 231.218 238.925 231.272 238.973 231.315C239.323 231.623 240.269 231.369 240.917 230.682C240.913 230.697 240.913 230.714 240.917 230.729C240.922 230.839 240.958 230.946 241.022 231.039C241.085 231.132 241.174 231.209 241.279 231.262C241.327 231.288 241.38 231.304 241.435 231.309C241.435 231.36 241.45 231.409 241.48 231.451C241.527 231.538 241.596 231.613 241.682 231.67C241.768 231.727 241.868 231.764 241.973 231.777V231.777C242.019 231.898 242.107 232.003 242.224 232.074C242.341 232.146 242.48 232.181 242.621 232.174C242.81 232.165 242.988 232.091 243.12 231.966C243.822 231.721 244.443 231.313 244.921 230.782C245.343 230.382 245.788 230.002 246.255 229.646C248.491 228.764 255.196 226.147 255.494 225.774C255.961 225.212 256.434 215.48 255.954 213.704Z" fill="#FFCEA9"/>
<path d="M256.706 217.072C256.706 217.072 254.069 218.15 251.879 217.143L252.197 213.373C252.197 213.373 252.229 211.348 254.205 211.147C256.181 210.945 257.218 213.26 256.706 217.072Z" fill="#EDEDED"/>
</g>
<defs>
<filter id="filter0_d_3_3" x="-4" y="0" width="325" height="304" filterUnits="userSpaceOnUse" color-interpolation-filters="sRGB">
<feFlood flood-opacity="0" result="BackgroundImageFix"/>
<feColorMatrix in="SourceAlpha" type="matrix" values="0 0 0 0 0 0 0 0 0 0 0 0 0 0 0 0 0 0 127 0" result="hardAlpha"/>
<feOffset dy="4"/>
<feGaussianBlur stdDeviation="2"/>
<feComposite in2="hardAlpha" operator="out"/>
<feColorMatrix type="matrix" values="0 0 0 0 0 0 0 0 0 0 0 0 0 0 0 0 0 0 0.25 0"/>
<feBlend mode="normal" in2="BackgroundImageFix" result="effect1_dropShadow_3_3"/>
<feBlend mode="normal" in="SourceGraphic" in2="effect1_dropShadow_3_3" result="shape"/>
</filter>
</defs>
</svg>
