<svg width="204" height="162" viewBox="0 0 204 162" fill="none" xmlns="http://www.w3.org/2000/svg">
<path d="M98.0934 155.38L13.5507 102.72C10.8579 101.108 8.5527 98.5123 11.1741 96.8089L96.0228 45.2929C97.2978 44.46 99.2307 43.9173 100.521 44.7072L189.261 98.9798C191.954 100.624 192.433 105.229 189.74 106.874L109.237 155.294C107.547 156.33 105.631 156.883 103.676 156.898C101.721 156.913 99.797 156.39 98.0934 155.38V155.38Z" fill="#D059FA"/>
<path d="M53.7387 101.387L33.3897 114.053C33.3897 114.053 72.93 138.636 84.303 145.756L103.918 132.586" fill="url(#paint0_linear_1_383)"/>
<path d="M47.6136 102.236L49.0671 103.144L111.032 65.7499L158.1 95.5354L160.247 94.8583V97.5451C160.279 97.8214 160.232 98.1014 160.113 98.35C159.994 98.5985 159.809 98.8045 159.579 98.9422L100.215 134.827C99.3719 135.33 98.4196 135.594 97.4508 135.594C96.482 135.594 95.5297 135.33 94.6866 134.827L48.8376 107.674C48.3961 107.415 48.0434 107.016 47.83 106.534C47.6166 106.051 47.5534 105.51 47.6493 104.987L47.6136 102.236Z" fill="#F9D0F0"/>
<path d="M47.6136 102.236L49.0671 103.144L111.032 65.7499L158.1 95.5354L160.247 94.8583V97.5451C160.279 97.8214 160.232 98.1014 160.113 98.35C159.994 98.5985 159.809 98.8045 159.579 98.9422L100.215 134.827C99.3719 135.33 98.4196 135.594 97.4508 135.594C96.482 135.594 95.5297 135.33 94.6866 134.827L48.8376 107.674C48.3961 107.415 48.0434 107.016 47.83 106.534C47.6166 106.051 47.5534 105.51 47.6493 104.987L47.6136 102.236Z" fill="#F9D0F0"/>
<path opacity="0.39" d="M47.6136 102.236L49.0671 103.144L111.032 65.7499L158.1 95.5354L160.247 94.8583V97.5451C160.279 97.8214 160.232 98.1014 160.113 98.35C159.994 98.5985 159.809 98.8045 159.579 98.9422L100.215 134.827C99.3719 135.33 98.4196 135.594 97.4508 135.594C96.482 135.594 95.5297 135.33 94.6866 134.827L48.8376 107.674C48.3961 107.415 48.0434 107.016 47.83 106.534C47.6166 106.051 47.5534 105.51 47.6493 104.987L47.6136 102.236Z" fill="#124577"/>
<path d="M159.548 95.6267L100.215 131.511C99.3719 132.014 98.4196 132.278 97.4508 132.278C96.482 132.278 95.5297 132.014 94.6866 131.511L48.8376 104.359C48.4675 104.137 48.1597 103.817 47.9455 103.429C47.7314 103.042 47.6185 102.601 47.6185 102.153C47.6185 101.704 47.7314 101.264 47.9455 100.877C48.1597 100.489 48.4675 100.168 48.8376 99.9471L111.058 62.4076L159.599 93.1442C159.807 93.2716 159.979 93.4554 160.097 93.6765C160.215 93.8976 160.274 94.1479 160.269 94.4013C160.264 94.6548 160.194 94.9021 160.067 95.1176C159.941 95.3331 159.761 95.5089 159.548 95.6267V95.6267Z" fill="#F9D0F0"/>
<path d="M152.51 94.1329L101.49 124.972L56.2581 98.1845L107.992 66.1744L152.51 94.1329Z" fill="white"/>
<path opacity="0.39" d="M73.3176 114.38C74.5654 114.38 75.5769 113.801 75.5769 113.085C75.5769 112.37 74.5654 111.79 73.3176 111.79C72.0698 111.79 71.0583 112.37 71.0583 113.085C71.0583 113.801 72.0698 114.38 73.3176 114.38Z" fill="#124577"/>
<path opacity="0.32" d="M84.66 99.8073C84.3526 99.5874 84.0953 99.2984 83.9065 98.9611C83.7178 98.6238 83.6024 98.2467 83.5686 97.8568L68.4369 108.093L78.1575 113.779C78.1983 113.585 90.1629 103.837 90.1629 103.837C86.6286 101.865 87.8985 102.252 84.66 99.8073Z" fill="url(#paint1_linear_1_383)"/>
<path d="M87.6741 47.7808C87.6741 47.7808 88.7451 45.7658 89.0409 45.5884C89.4158 45.3128 89.8445 45.1292 90.2955 45.0511C90.5556 45.1156 90.2955 45.8141 90.2955 45.8141C90.2955 45.8141 92.8455 45.1263 93.1056 45.3305C93.3657 45.5347 92.8455 46.4751 92.3661 47.0393C91.8867 47.6035 88.5105 49.3392 88.5105 49.3392L87.6741 47.7808Z" fill="#FFB7A2"/>
<path d="M92.82 45.5992L94.5489 42.3751C94.5694 42.3345 94.5777 42.2884 94.5726 42.2428C94.5675 42.1971 94.5494 42.1542 94.5206 42.1198C94.4917 42.0853 94.4536 42.0609 94.4113 42.0499C94.369 42.0389 94.3245 42.0417 94.2837 42.058L91.902 43.0844C91.7314 43.1585 91.5895 43.291 91.4991 43.4605L89.8926 46.4536C90.8616 46.0721 91.8561 45.9001 92.82 45.5992Z" fill="#42342D"/>
<path d="M84.66 26.7273C84.66 26.7273 81.5592 26.4049 79.9425 28.9574C78.3258 31.5098 74.4957 40.9565 75.48 41.7464C76.4643 42.5363 81.7683 43.4498 84.3642 42.6599C86.9601 41.87 86.8428 35.4862 86.8428 35.4862" fill="#F47C2C"/>
<path d="M85.5627 92.5423C85.5627 92.5423 85.3944 97.3785 86.2359 98.8509C87.0774 100.323 91.2696 102.784 90.1629 103.821C89.0562 104.858 86.445 104.359 85.5729 103.198C85.0121 102.401 84.5011 101.566 84.0429 100.699V102.532C84.0429 102.532 82.2987 101.457 82.2987 101.366C82.2987 101.274 81.8958 90.4359 81.8958 90.4359" fill="#42342D"/>
<path d="M79.2081 94.5789C79.2081 94.5789 79.0398 99.4151 79.8864 100.866C80.733 102.317 85.1496 105.67 84.0327 106.702C82.9158 107.733 80.3097 106.782 79.2285 105.369C78.6234 104.537 78.0941 103.646 77.6475 102.709V104.536C77.6475 104.536 75.888 103.461 75.888 103.37C75.888 103.279 75.4851 92.4725 75.4851 92.4725" fill="#42342D"/>
<path d="M87.5313 53.7885C87.7557 54.3957 89.8059 89.861 87.6435 94.3747C85.8835 95.3401 83.9066 95.7805 81.9264 95.6482L81.2175 98.292C81.2175 98.292 75.9033 100.028 72.0681 98.3404C72.0681 98.3404 73.9041 61.4027 76.6173 54.5569" fill="#FEAFDE"/>
<path d="M88.3116 46.33C88.3592 45.3556 88.3983 44.3794 88.4289 43.4014C88.4799 41.655 88.8165 39.2315 87.6588 37.7753C86.8938 36.8081 85.6188 36.663 84.5988 36.2707C84.1277 36.0942 83.6299 36.0104 83.13 36.0236C82.8109 36.0632 82.4965 36.1371 82.1916 36.2439C81.0441 36.2439 79.5294 37.2487 78.4737 37.7861C77.9637 38.0547 77.6679 39.7689 77.2242 40.1719C76.2654 42.5954 76.0461 42.7727 76.0002 45.4219C75.9722 45.4631 75.9499 45.5083 75.9339 45.5562C75.6891 46.373 75.8217 49.2478 76.0206 51.9668C76.0206 52.0205 76.0206 52.0743 76.0206 52.128V52.0958C76.1124 53.3371 76.2195 54.5407 76.3062 55.4918C79.8762 56.9964 83.8848 56.4752 87.5262 55.2608C87.8067 55.1694 87.9393 50.9942 87.9852 50.5106C88.1433 49.1188 88.23 47.7217 88.3116 46.33Z" fill="#D26BF7"/>
<path d="M87.72 30.0535C87.873 30.1395 87.1386 37.7162 84.2469 37.0069C81.3552 36.2976 81.3756 33.7828 81.4419 33.1272C81.5082 32.4716 82.8648 30.8864 83.3136 30.2685C83.7624 29.6505 87.0723 29.6828 87.72 30.0535Z" fill="#FFB7A2"/>
<path d="M88.4391 29.2529C88.0668 27.3453 84.8691 25.8891 81.9111 27.3561C80.07 28.2696 78.2595 33.5464 80.2995 34.6157C82.3395 35.685 81.8295 35.1531 81.8295 35.1531C81.7942 35.0228 81.7686 34.8899 81.753 34.7554C81.7319 34.7029 81.7232 34.6457 81.7275 34.5888C81.7275 34.5405 81.7275 34.4921 81.7275 34.4491C81.7275 34.4061 81.7275 34.3793 81.7275 34.347C81.8328 32.9249 82.3692 31.5761 83.2575 30.4996C84.1602 29.5485 85.3893 29.6076 86.5623 29.7849C86.9514 29.8037 87.3352 29.8871 87.6996 30.0321L87.516 31.9988C87.9113 31.6895 88.2103 31.2631 88.3747 30.7741C88.5391 30.285 88.5615 29.7555 88.4391 29.2529V29.2529Z" fill="#F47C2C"/>
<path d="M87.7455 31.3163L85.0782 31.0906V30.161L84.5325 31.139L83.7522 30.9348C83.7522 30.9348 82.4262 35.2659 81.8091 35.1691C81.192 35.0724 80.9217 32.9337 81.1563 31.8161C81.3909 30.6984 82.6608 28.5436 84.7824 28.5328C86.904 28.5221 88.23 29.269 87.7455 31.3163Z" fill="#F47C2C"/>
<path d="M83.9307 47.3348C82.8995 47.652 81.8502 47.8997 80.7891 48.0764C80.4474 48.0764 80.0394 47.985 79.9221 47.6465C79.8965 47.5171 79.8965 47.3836 79.9221 47.2542C80.0122 45.741 80.1928 44.2352 80.4627 42.7458C80.6565 41.4132 80.8758 39.5916 80.2485 38.3449C79.3101 36.4964 77.469 38.2428 76.7754 39.3713C75.6075 41.2359 75.48 43.9226 75.4086 46.0721C75.1332 53.4016 76.8315 53.7132 79.1775 53.638C81.5235 53.5628 88.6737 51.6981 88.74 50.6933C88.7808 50.0538 88.23 48.2376 87.6486 47.0447C87.3885 46.5234 85.6239 46.8996 83.9307 47.3348Z" fill="#FF31EA"/>
<path d="M83.7879 62.2679C83.4479 73.4233 82.7169 84.5537 81.5949 95.659C81.5592 96.0029 82.0692 95.9975 82.1049 95.659C83.2167 84.5537 83.9477 73.4233 84.2979 62.2679C84.3081 61.924 83.7981 61.924 83.7879 62.2679Z" fill="white"/>
<path d="M138.771 38.0709C138.896 38.2701 138.961 38.5039 138.96 38.7426L138.684 55.8304C138.684 56.2227 138.409 56.4215 138.098 56.2388L114.638 41.9506C114.469 41.8314 114.328 41.6721 114.228 41.4855C114.128 41.2988 114.071 41.09 114.061 40.8759L114.332 23.96C114.325 23.8838 114.337 23.8071 114.365 23.7368C114.394 23.6665 114.438 23.6047 114.495 23.557C114.587 23.4656 114.735 23.4495 114.934 23.557L138.276 37.5819L138.409 37.6625C138.561 37.7638 138.685 37.9044 138.771 38.0709ZM137.532 54.3849L137.771 39.339L126.959 42.2139C126.856 42.2299 126.751 42.205 126.664 42.144C126.548 42.0733 126.447 41.9782 126.368 41.8646L119.682 32.1493L115.602 26.2384L115.438 26.0181L115.204 40.7953L137.511 54.3688L137.532 54.3849ZM136.328 37.9097L116.861 26.2223L117.101 26.5877C118.379 28.4361 119.654 30.2864 120.926 32.1385L124.822 37.7968C125.363 38.5814 126.215 39.5701 126.74 40.4836L126.791 40.4514C127.218 40.2665 127.668 40.1471 128.127 40.0967L132.003 39.0704L136.338 37.9204L136.328 37.9097ZM126.689 40.5158H126.658C126.587 40.4729 126.536 40.4836 126.511 40.5158C126.485 40.5481 126.48 40.5696 126.511 40.5803C126.541 40.5911 126.597 40.5803 126.694 40.5427" fill="#39052E"/>
<path d="M140.413 41.9509C142.381 41.4192 143.425 38.73 142.747 35.9445C142.069 33.159 139.924 31.332 137.957 31.8638C135.99 32.3955 134.945 35.0847 135.624 37.8702C136.302 40.6557 138.446 42.4827 140.413 41.9509Z" fill="#100F0F"/>
<path d="M139.174 34.6909H139.505V39.0865H138.751V35.8032L137.945 36.3084V35.4486L139.174 34.6909Z" fill="white"/>
<path d="M106.452 74.9602L136.394 93.7675C136.569 93.8661 136.773 93.8894 136.964 93.8326C137.154 93.7757 137.317 93.6432 137.416 93.4629C137.516 93.2826 137.546 93.0686 137.499 92.8658C137.452 92.663 137.332 92.4874 137.165 92.3758L107.222 73.5684C107.048 73.4699 106.844 73.4466 106.653 73.5034C106.462 73.5602 106.3 73.6927 106.2 73.873C106.101 74.0533 106.071 74.2674 106.118 74.4702C106.165 74.6729 106.285 74.8486 106.452 74.9602V74.9602Z" fill="#754C24"/>
<path d="M97.92 78.9903L127.862 97.7977C128.037 97.8962 128.241 97.9195 128.431 97.8627C128.622 97.8059 128.784 97.6734 128.884 97.4931C128.984 97.3127 129.013 97.0987 128.966 96.8959C128.919 96.6932 128.8 96.5175 128.632 96.4059L98.6901 77.5986C98.5154 77.5 98.3114 77.4767 98.1207 77.5335C97.9301 77.5904 97.7679 77.7229 97.6681 77.9032C97.5683 78.0835 97.5388 78.2975 97.5858 78.5003C97.6328 78.7031 97.7526 78.8787 97.92 78.9903Z" fill="#754C24"/>
<path d="M89.9589 84.3585L119.901 103.166C120.076 103.264 120.28 103.288 120.47 103.231C120.661 103.174 120.823 103.042 120.923 102.861C121.023 102.681 121.052 102.467 121.005 102.264C120.958 102.061 120.839 101.886 120.671 101.774L90.729 82.9667C90.5544 82.8682 90.3503 82.8449 90.1596 82.9017C89.969 82.9585 89.8068 83.091 89.707 83.2713C89.6072 83.4516 89.5777 83.6657 89.6247 83.8684C89.6717 84.0712 89.7915 84.2469 89.9589 84.3585Z" fill="#754C24"/>
<path d="M140.53 97.4967C142.142 97.4967 143.448 96.7894 143.448 95.9169C143.448 95.0444 142.142 94.3371 140.53 94.3371C138.919 94.3371 137.613 95.0444 137.613 95.9169C137.613 96.7894 138.919 97.4967 140.53 97.4967Z" fill="#EF5407"/>
<path d="M132.483 101.387C134.094 101.387 135.4 100.68 135.4 99.8074C135.4 98.9349 134.094 98.2275 132.483 98.2275C130.872 98.2275 129.565 98.9349 129.565 99.8074C129.565 100.68 130.872 101.387 132.483 101.387Z" fill="#EF5407"/>
<path d="M124.144 107.395C125.755 107.395 127.061 106.687 127.061 105.815C127.061 104.942 125.755 104.235 124.144 104.235C122.533 104.235 121.227 104.942 121.227 105.815C121.227 106.687 122.533 107.395 124.144 107.395Z" fill="#EF5407"/>
<path d="M55.1871 25.0347C58.1655 23.6376 60.5013 25.8622 60.3993 29.9945C60.2973 34.1267 57.8034 38.5921 54.825 40.0053C54.4453 40.1873 54.0438 40.3138 53.6316 40.3815C51.2448 40.7523 49.521 38.6082 49.6077 35.0456C49.6251 34.3791 49.6985 33.7156 49.827 33.0627C50.5206 29.5646 52.683 26.19 55.1871 25.0347ZM56.0184 34.6641C56.3404 34.1081 56.5164 33.4721 56.5284 32.8209C56.559 31.6388 56.1204 31.0584 55.386 31.4023L55.1922 31.5098L56.3601 28.8768V28.4576L53.6163 29.7419L53.5908 30.8166L55.1208 30.1019L54.1722 32.2513L54.5037 32.7565C54.6189 32.6138 54.7614 32.4984 54.9219 32.4179C55.3656 32.2084 55.6665 32.4824 55.6461 33.2347C55.6563 33.5317 55.5883 33.826 55.4497 34.0848C55.3111 34.3437 55.1073 34.5572 54.8607 34.7017C54.4578 34.8897 54.2079 34.7017 54.111 34.0945L53.2746 34.6318C53.2664 34.849 53.3042 35.0654 53.3854 35.2653C53.4665 35.4652 53.589 35.6434 53.7438 35.7871C53.9085 35.8919 54.0972 35.9473 54.2895 35.9473C54.4819 35.9473 54.6706 35.8919 54.8352 35.7871C55.3326 35.5434 55.7447 35.1411 56.0133 34.6372" fill="#130713"/>
<path d="M56.3703 28.4469V28.866L55.182 31.5098L55.3758 31.4023C56.1102 31.0584 56.5488 31.6388 56.5182 32.821C56.5062 33.4721 56.3302 34.1082 56.0082 34.6641C55.7396 35.168 55.3275 35.5703 54.8301 35.814C54.6654 35.9188 54.4767 35.9741 54.2844 35.9741C54.092 35.9741 53.9033 35.9188 53.7387 35.814C53.5839 35.6703 53.4614 35.4921 53.3802 35.2922C53.2991 35.0923 53.2612 34.8759 53.2695 34.6587L54.1059 34.1213C54.2079 34.7178 54.4527 34.9166 54.8556 34.7286C55.1021 34.5841 55.306 34.3706 55.4446 34.1117C55.5832 33.8529 55.6512 33.5586 55.641 33.2616C55.641 32.5093 55.3605 32.2352 54.9168 32.4448C54.7563 32.5253 54.6138 32.6407 54.4986 32.7833L54.1671 32.2782L55.1157 30.1288L53.5857 30.8435L53.6112 29.7688L56.3703 28.4469Z" fill="white"/>
<path d="M46.3845 28.189C47.5881 27.6516 48.5316 28.5275 48.4908 30.1987L48.45 32.9123C48.9238 32.884 49.3989 32.9348 49.8576 33.0628C49.729 33.7156 49.6557 34.3791 49.6383 35.0456C49.5516 38.6082 51.2754 40.7523 53.6622 40.3815C53.6622 40.4245 53.6622 40.4675 53.6622 40.5105L53.55 44.3095C53.4417 46.3823 53.8421 48.4495 54.7128 50.3118L56.4825 53.767C56.5312 53.8867 56.5563 54.0156 56.5563 54.1458C56.5563 54.276 56.5312 54.4049 56.4825 54.5246C56.4004 54.7847 56.2271 55.0019 55.998 55.1318L35.2563 64.8311C35.2162 64.8547 35.1719 64.8693 35.1261 64.8739C35.0804 64.8786 35.0342 64.8731 34.9906 64.858C34.947 64.8428 34.9068 64.8183 34.8726 64.7859C34.8385 64.7535 34.8111 64.714 34.7922 64.6699C34.7439 64.5491 34.7191 64.4194 34.7191 64.2883C34.7191 64.1573 34.7439 64.0276 34.7922 63.9068L36.771 58.6999C37.6727 56.3936 38.182 53.938 38.2755 51.4456L38.3673 47.6841C38.4846 42.8479 40.8816 37.7377 44.064 34.9542L44.1303 32.2352C44.166 30.5694 45.1809 28.7532 46.3845 28.189Z" fill="#330329"/>
<path d="M49.0161 59.8874C48.3582 61.9616 47.0271 63.8154 45.5073 64.5248C45.2037 64.7016 44.8666 64.805 44.5203 64.8274C44.1741 64.8498 43.8275 64.7907 43.5057 64.6543C43.1838 64.518 42.8949 64.3078 42.6597 64.0391C42.4246 63.7703 42.2493 63.4498 42.1464 63.1008L49.0161 59.8874Z" fill="#F9D0F0"/>
<defs>
<linearGradient id="paint0_linear_1_383" x1="73.8633" y1="115.192" x2="64.1545" y2="128.832" gradientUnits="userSpaceOnUse">
<stop stop-color="#BE40F9"/>
<stop offset="1" stop-color="#F3BFFC"/>
</linearGradient>
<linearGradient id="paint1_linear_1_383" x1="75.1587" y1="110.893" x2="79.9869" y2="105.711" gradientUnits="userSpaceOnUse">
<stop stop-color="white" stop-opacity="0"/>
<stop offset="1" stop-color="#FF6A00"/>
</linearGradient>
</defs>
</svg>
