<svg width="415" height="306" viewBox="0 0 415 306" fill="none" xmlns="http://www.w3.org/2000/svg">
<path d="M227.033 148.346C226.758 148.346 226.494 148.239 226.3 148.048C226.105 147.858 225.996 147.6 225.996 147.331V143.271C225.996 143.001 226.105 142.743 226.3 142.553C226.494 142.363 226.758 142.256 227.033 142.256C227.309 142.256 227.572 142.363 227.767 142.553C227.962 142.743 228.071 143.001 228.071 143.271V147.331C228.071 147.6 227.962 147.858 227.767 148.048C227.572 148.239 227.309 148.346 227.033 148.346Z" fill="#DFEAEF"/>
<path d="M227.033 157.582C226.758 157.582 226.494 157.475 226.3 157.285C226.105 157.095 225.996 156.836 225.996 156.567V152.507C225.996 152.238 226.105 151.98 226.3 151.789C226.494 151.599 226.758 151.492 227.033 151.492C227.309 151.492 227.572 151.599 227.767 151.789C227.962 151.98 228.071 152.238 228.071 152.507V156.567C228.071 156.836 227.962 157.095 227.767 157.285C227.572 157.475 227.309 157.582 227.033 157.582Z" fill="#DFEAEF"/>
<path d="M233.85 150.914H229.7C229.425 150.914 229.161 150.807 228.966 150.616C228.772 150.426 228.662 150.168 228.662 149.899C228.662 149.629 228.772 149.371 228.966 149.181C229.161 148.991 229.425 148.884 229.7 148.884H233.85C234.125 148.884 234.389 148.991 234.583 149.181C234.778 149.371 234.887 149.629 234.887 149.899C234.887 150.168 234.778 150.426 234.583 150.616C234.389 150.807 234.125 150.914 233.85 150.914Z" fill="#DFEAEF"/>
<path d="M224.408 150.914H220.259C219.983 150.914 219.719 150.807 219.525 150.616C219.33 150.426 219.221 150.168 219.221 149.899C219.221 149.629 219.33 149.371 219.525 149.181C219.719 148.991 219.983 148.884 220.259 148.884H224.408C224.684 148.884 224.948 148.991 225.142 149.181C225.337 149.371 225.446 149.629 225.446 149.899C225.446 150.168 225.337 150.426 225.142 150.616C224.948 150.807 224.684 150.914 224.408 150.914Z" fill="#DFEAEF"/>
<path d="M175.013 68.3332C174.738 68.3332 174.474 68.2263 174.28 68.0359C174.085 67.8456 173.976 67.5874 173.976 67.3182V63.2582C173.976 62.989 174.085 62.7308 174.28 62.5405C174.474 62.3501 174.738 62.2432 175.013 62.2432C175.288 62.2432 175.552 62.3501 175.747 62.5405C175.941 62.7308 176.051 62.989 176.051 63.2582V67.3182C176.051 67.5874 175.941 67.8456 175.747 68.0359C175.552 68.2263 175.288 68.3332 175.013 68.3332Z" fill="#DFEAEF"/>
<path d="M175.013 77.5799C174.738 77.5799 174.474 77.4729 174.28 77.2826C174.085 77.0922 173.976 76.8341 173.976 76.5649V72.4541C173.976 72.1849 174.085 71.9267 174.28 71.7364C174.474 71.546 174.738 71.4391 175.013 71.4391C175.288 71.4391 175.552 71.546 175.747 71.7364C175.941 71.9267 176.051 72.1849 176.051 72.4541V76.5649C176.051 76.8341 175.941 77.0922 175.747 77.2826C175.552 77.4729 175.288 77.5799 175.013 77.5799V77.5799Z" fill="#DFEAEF"/>
<path d="M181.83 70.9418H177.68C177.404 70.9418 177.14 70.8348 176.946 70.6445C176.751 70.4541 176.642 70.196 176.642 69.9268C176.642 69.6576 176.751 69.3994 176.946 69.209C177.14 69.0187 177.404 68.9118 177.68 68.9118H181.83C182.105 68.9118 182.369 69.0187 182.563 69.209C182.758 69.3994 182.867 69.6576 182.867 69.9268C182.867 70.196 182.758 70.4541 182.563 70.6445C182.369 70.8348 182.105 70.9418 181.83 70.9418Z" fill="#DFEAEF"/>
<path d="M172.388 70.9418H168.238C167.963 70.9418 167.699 70.8348 167.505 70.6445C167.31 70.4541 167.201 70.196 167.201 69.9268C167.201 69.6576 167.31 69.3994 167.505 69.209C167.699 69.0187 167.963 68.9118 168.238 68.9118H172.388C172.663 68.9118 172.927 69.0187 173.122 69.209C173.316 69.3994 173.426 69.6576 173.426 69.9268C173.426 70.196 173.316 70.4541 173.122 70.6445C172.927 70.8348 172.663 70.9418 172.388 70.9418Z" fill="#DFEAEF"/>
<path d="M234.047 119.185C233.772 119.185 233.508 119.078 233.313 118.887C233.119 118.697 233.009 118.439 233.009 118.17V110.618C233.009 110.349 233.119 110.091 233.313 109.9C233.508 109.71 233.772 109.603 234.047 109.603C234.322 109.603 234.586 109.71 234.781 109.9C234.975 110.091 235.084 110.349 235.084 110.618V118.17C235.084 118.439 234.975 118.697 234.781 118.887C234.586 119.078 234.322 119.185 234.047 119.185Z" fill="#DFEAEF"/>
<path d="M237.896 115.409H230.219C229.943 115.409 229.679 115.302 229.485 115.112C229.29 114.921 229.181 114.663 229.181 114.394C229.181 114.125 229.29 113.867 229.485 113.676C229.679 113.486 229.943 113.379 230.219 113.379H237.927C238.202 113.379 238.466 113.486 238.661 113.676C238.855 113.867 238.965 114.125 238.965 114.394C238.965 114.663 238.855 114.921 238.661 115.112C238.466 115.302 238.202 115.409 237.927 115.409H237.896Z" fill="#DFEAEF"/>
<path d="M144.083 243.879L205.758 205.941C210.041 203.306 211.33 197.774 208.637 193.583L133.062 75.9931C130.369 71.8027 124.714 70.5416 120.431 73.1763L58.7555 111.114C54.4723 113.749 53.1832 119.282 55.8763 123.472L131.451 241.062C134.144 245.253 139.8 246.514 144.083 243.879Z" fill="#C172FF"/>
<path d="M139.23 246.283C137.502 246.287 135.802 245.862 134.288 245.047C132.775 244.232 131.498 243.054 130.577 241.624L54.9952 124.036C54.2798 122.929 53.7949 121.694 53.5683 120.402C53.3417 119.111 53.3779 117.789 53.6748 116.511C53.9716 115.233 54.5233 114.025 55.2983 112.957C56.0732 111.888 57.0561 110.979 58.1907 110.283L119.87 72.3323C122.16 70.9279 124.926 70.4693 127.562 71.0573C130.197 71.6452 132.487 73.2317 133.928 75.4687L209.52 193.056C210.963 195.291 211.439 197.995 210.846 200.573C210.253 203.152 208.638 205.395 206.356 206.81L144.677 244.76C143.046 245.765 141.157 246.293 139.23 246.283V246.283ZM125.286 72.8398C123.761 72.8355 122.267 73.2582 120.98 74.0578L59.3008 111.998C58.3976 112.553 57.615 113.277 56.9978 114.127C56.3806 114.978 55.9409 115.94 55.7039 116.957C55.4668 117.974 55.4371 119.027 55.6163 120.055C55.7956 121.084 56.1803 122.068 56.7485 122.95L132.33 240.538C133.479 242.321 135.304 243.586 137.405 244.054C139.506 244.522 141.711 244.155 143.535 243.035L205.215 205.094C206.117 204.539 206.899 203.815 207.515 202.964C208.131 202.112 208.57 201.151 208.806 200.134C209.042 199.117 209.071 198.064 208.891 197.036C208.711 196.008 208.325 195.025 207.757 194.142L132.175 76.5445C131.442 75.4058 130.425 74.4682 129.22 73.8201C128.015 73.172 126.661 72.8346 125.286 72.8398V72.8398Z" fill="#C172FF"/>
<path d="M153.04 237.176L214.965 199.402C219.265 196.778 220.578 191.241 217.896 187.033L142.646 68.9661C139.964 64.7587 134.304 63.4747 130.004 66.0981L68.0784 103.873C63.7777 106.496 62.4652 112.034 65.1468 116.241L140.397 234.308C143.079 238.516 148.739 239.8 153.04 237.176Z" fill="#FFD0F8"/>
<path d="M148.837 240.376C147.109 240.378 145.408 239.95 143.895 239.134C142.381 238.317 141.105 237.138 140.184 235.707L64.6024 118.119C63.8875 117.011 63.4032 115.775 63.1774 114.483C62.9516 113.192 62.9887 111.869 63.2866 110.591C63.5844 109.313 64.1371 108.106 64.9131 107.037C65.689 105.969 66.6729 105.061 67.8083 104.366L129.477 66.425C131.768 65.0174 134.537 64.557 137.175 65.1451C139.813 65.7332 142.104 67.3216 143.546 69.5614L219.128 187.149C220.553 189.386 221.016 192.083 220.415 194.652C219.814 197.221 218.199 199.454 215.922 200.862L154.242 238.802L153.693 237.95L154.242 238.802C152.629 239.817 150.755 240.362 148.837 240.376V240.376ZM134.893 66.8818C133.369 66.8825 131.877 67.3048 130.587 68.0998L68.908 106.051C68.0038 106.604 67.2202 107.327 66.6022 108.178C65.9842 109.029 65.5441 109.99 65.3069 111.008C65.0698 112.026 65.0404 113.079 65.2204 114.108C65.4004 115.136 65.7862 116.12 66.3558 117.002L141.948 234.59C143.095 236.373 144.918 237.637 147.017 238.105C149.116 238.573 151.319 238.207 153.143 237.087L214.822 199.136C216.644 198.014 217.936 196.231 218.415 194.177C218.893 192.124 218.519 189.968 217.374 188.184L141.782 70.6373C141.218 69.7529 140.48 68.987 139.611 68.3841C138.742 67.7812 137.759 67.3534 136.719 67.1254C136.122 66.9741 135.509 66.8923 134.893 66.8818V66.8818Z" fill="#C172FF"/>
<path d="M143.64 220.485L203.62 183.59C205.861 182.211 206.535 179.316 205.126 177.124L145.207 83.8938C143.798 81.7014 140.839 81.0415 138.598 82.4201L78.6184 119.315C76.3773 120.694 75.7028 123.588 77.1119 125.781L137.031 219.011C138.44 221.203 141.399 221.863 143.64 220.485Z" fill="#2B1A21"/>
<path d="M141.097 222.238C140.111 222.24 139.141 221.997 138.277 221.532C137.413 221.067 136.684 220.395 136.159 219.578L76.2224 126.34C75.8151 125.707 75.5395 125.001 75.4114 124.263C75.2833 123.525 75.3051 122.77 75.4757 122.04C75.6462 121.31 75.9622 120.621 76.4054 120.011C76.8486 119.4 77.4105 118.882 78.0588 118.484L138.047 81.579C139.355 80.776 140.934 80.5132 142.44 80.8481C143.945 81.183 145.253 82.0882 146.077 83.3654L206.014 176.603C206.831 177.884 207.096 179.43 206.752 180.902C206.408 182.374 205.482 183.653 204.177 184.459L144.189 221.375C143.262 221.942 142.19 222.241 141.097 222.238V222.238ZM141.139 82.7259C140.433 82.7275 139.743 82.9246 139.147 83.2943L79.1585 120.2C78.7394 120.456 78.3763 120.791 78.0902 121.186C77.8041 121.58 77.6008 122.026 77.4918 122.498C77.3828 122.97 77.3703 123.458 77.4552 123.935C77.54 124.411 77.7205 124.867 77.9861 125.275L137.881 218.502C138.414 219.326 139.26 219.91 140.232 220.125C141.205 220.34 142.225 220.169 143.069 219.649L203.057 182.744C203.476 182.487 203.839 182.152 204.125 181.758C204.411 181.363 204.615 180.917 204.724 180.445C204.833 179.974 204.845 179.485 204.76 179.009C204.675 178.532 204.495 178.077 204.229 177.669L144.324 84.4514C144.062 84.0423 143.721 83.6881 143.318 83.4093C142.916 83.1306 142.46 82.9328 141.979 82.8274C141.705 82.7587 141.422 82.7246 141.139 82.7259V82.7259Z" fill="#C172FF"/>
<path d="M116.716 88.1866C117.53 88.1866 118.189 87.5413 118.189 86.7453C118.189 85.9493 117.53 85.304 116.716 85.304C115.902 85.304 115.243 85.9493 115.243 86.7453C115.243 87.5413 115.902 88.1866 116.716 88.1866Z" fill="#C172FF"/>
<path d="M90.8096 103.696C90.5837 103.697 90.3638 103.625 90.1831 103.492C90.0025 103.36 89.8711 103.173 89.8089 102.96C89.7467 102.748 89.7571 102.521 89.8384 102.315C89.9198 102.109 90.0678 101.934 90.2598 101.818L110.201 89.5467C110.316 89.4761 110.445 89.4284 110.58 89.4065C110.714 89.3846 110.852 89.3889 110.985 89.419C111.118 89.4492 111.244 89.5047 111.355 89.5823C111.466 89.6599 111.56 89.7582 111.632 89.8715C111.704 89.9848 111.753 90.1109 111.776 90.2426C111.798 90.3743 111.794 90.5091 111.763 90.6391C111.732 90.7692 111.675 90.892 111.596 91.0007C111.517 91.1093 111.416 91.2016 111.3 91.2722L91.3595 103.544C91.1944 103.644 91.0039 103.696 90.8096 103.696Z" fill="#C172FF"/>
<path d="M178.79 216.137C182.216 216.137 184.994 213.42 184.994 210.068C184.994 206.716 182.216 203.998 178.79 203.998C175.363 203.998 172.585 206.716 172.585 210.068C172.585 213.42 175.363 216.137 178.79 216.137Z" fill="#C172FF"/>
<path d="M85.8504 168.727C85.6275 168.724 85.4115 168.651 85.2343 168.519C85.057 168.387 84.928 168.202 84.8663 167.993C84.8047 167.783 84.8136 167.56 84.8918 167.356C84.97 167.152 85.1133 166.978 85.3005 166.859L90.1456 163.875C90.2606 163.793 90.3917 163.735 90.5307 163.704C90.6697 163.674 90.8137 163.671 90.9536 163.698C91.0935 163.724 91.2264 163.778 91.344 163.857C91.4616 163.935 91.5613 164.037 91.637 164.155C91.7128 164.273 91.7628 164.405 91.784 164.543C91.8053 164.681 91.7973 164.821 91.7605 164.956C91.7238 165.091 91.6591 165.217 91.5704 165.326C91.4818 165.435 91.3712 165.525 91.2454 165.59L86.4003 168.575C86.2351 168.675 86.0446 168.727 85.8504 168.727V168.727Z" fill="#C172FF"/>
<path d="M197.589 179.547C197.416 179.546 197.245 179.504 197.093 179.422C196.94 179.34 196.811 179.223 196.718 179.08L180.823 154.476C180.676 154.249 180.627 153.973 180.687 153.711C180.748 153.448 180.912 153.22 181.145 153.076C181.377 152.932 181.659 152.884 181.927 152.943C182.196 153.002 182.429 153.163 182.576 153.39L198.471 177.973C198.544 178.086 198.593 178.212 198.617 178.343C198.64 178.474 198.637 178.609 198.607 178.739C198.577 178.869 198.521 178.992 198.443 179.101C198.364 179.21 198.265 179.303 198.149 179.374C197.982 179.479 197.788 179.539 197.589 179.547V179.547Z" fill="#DFEAEF"/>
<path d="M98.1137 142.915C97.9401 142.915 97.7693 142.872 97.6171 142.791C97.4648 142.709 97.3359 142.591 97.2422 142.449L94.057 137.607C93.9817 137.494 93.9301 137.368 93.9052 137.236C93.8802 137.103 93.8825 136.967 93.9118 136.836C93.941 136.705 93.9964 136.581 94.0748 136.471C94.1531 136.361 94.2529 136.268 94.3683 136.196L147.592 103.3C147.822 103.158 148.101 103.111 148.366 103.168C148.632 103.225 148.865 103.381 149.013 103.604L162.252 123.052C162.337 123.162 162.398 123.288 162.431 123.422C162.464 123.557 162.469 123.696 162.446 123.832C162.422 123.968 162.37 124.098 162.294 124.214C162.217 124.33 162.117 124.429 161.999 124.506C161.882 124.582 161.75 124.635 161.611 124.66C161.473 124.685 161.33 124.682 161.193 124.652C161.055 124.621 160.925 124.563 160.811 124.482C160.697 124.401 160.601 124.297 160.53 124.179L147.851 105.553L96.381 137.363L98.9955 141.352C99.1437 141.579 99.1942 141.853 99.1359 142.116C99.0775 142.378 98.9151 142.607 98.6843 142.753C98.5143 142.86 98.316 142.917 98.1137 142.915V142.915Z" fill="#DFEAEF"/>
<path d="M123.833 168.29C123.691 168.29 123.55 168.261 123.42 168.205C123.29 168.149 123.173 168.068 123.076 167.966C122.889 167.769 122.79 167.508 122.8 167.24C122.81 166.971 122.927 166.718 123.128 166.534L164.14 128.979C164.341 128.795 164.609 128.696 164.884 128.705C165.159 128.713 165.42 128.829 165.608 129.025C165.797 129.222 165.898 129.483 165.889 129.753C165.88 130.022 165.762 130.277 165.561 130.461L124.539 168.016C124.347 168.192 124.095 168.29 123.833 168.29Z" fill="#C172FF"/>
<path d="M158.206 186.266C158.027 186.266 157.852 186.22 157.697 186.134C157.578 186.069 157.473 185.983 157.388 185.878C157.303 185.774 157.24 185.654 157.203 185.526C157.165 185.398 157.154 185.264 157.169 185.131C157.185 184.999 157.227 184.87 157.293 184.754L181.456 142.733C181.594 142.498 181.821 142.327 182.087 142.257C182.354 142.186 182.638 142.223 182.877 142.357C183.117 142.492 183.292 142.714 183.364 142.975C183.436 143.235 183.399 143.513 183.261 143.748L159.088 185.769C158.997 185.919 158.868 186.043 158.713 186.13C158.559 186.218 158.384 186.264 158.206 186.266Z" fill="#C172FF"/>
<path d="M141.564 152.05C141.392 152.051 141.221 152.01 141.069 151.93C140.917 151.85 140.788 151.735 140.693 151.594C139.644 149.882 138.231 148.41 136.55 147.279C134.87 146.147 132.96 145.383 130.951 145.037C125.452 144.123 118.552 146.306 112.493 150.873C112.349 150.985 112.177 151.057 111.994 151.082C111.812 151.107 111.626 151.084 111.456 151.015C111.289 150.951 111.141 150.845 111.029 150.708C110.916 150.571 110.841 150.407 110.813 150.234C110.44 148.391 109.541 146.689 108.218 145.327C106.896 143.965 105.205 142.998 103.343 142.54C101.426 142.108 99.4358 142.097 97.5145 142.508C95.5932 142.919 93.7888 143.741 92.231 144.915C92.1208 144.994 91.9957 145.051 91.8629 145.082C91.7301 145.114 91.5923 145.119 91.4574 145.098C91.3224 145.078 91.193 145.031 91.0765 144.961C90.96 144.891 90.8587 144.8 90.7785 144.692C90.6178 144.476 90.5505 144.207 90.5913 143.942C90.6321 143.678 90.7776 143.441 90.9964 143.281C92.8061 141.929 94.8986 140.986 97.1243 140.517C99.3501 140.049 101.654 140.067 103.872 140.571C105.849 141.079 107.668 142.054 109.171 143.409C110.674 144.764 111.815 146.459 112.493 148.346C118.718 144.012 125.535 142.073 131.283 143.027C133.577 143.418 135.76 144.287 137.682 145.574C139.604 146.861 141.222 148.536 142.425 150.487C142.526 150.641 142.582 150.817 142.589 150.999C142.596 151.181 142.552 151.362 142.463 151.521C142.374 151.681 142.242 151.815 142.082 151.908C141.922 152.001 141.74 152.05 141.554 152.05H141.564Z" fill="#C172FF"/>
<path d="M128.544 172.056C128.296 172.056 128.057 171.97 127.869 171.812C118.335 163.956 104.183 168.422 104.007 168.463C103.747 168.547 103.463 168.526 103.218 168.407C102.974 168.287 102.787 168.077 102.699 167.824C102.655 167.697 102.637 167.563 102.647 167.43C102.656 167.296 102.692 167.166 102.752 167.046C102.813 166.926 102.897 166.819 103.001 166.732C103.104 166.644 103.223 166.577 103.353 166.534C103.976 166.342 118.739 161.673 129.176 170.26C129.341 170.393 129.459 170.573 129.515 170.774C129.572 170.976 129.563 171.19 129.49 171.386C129.417 171.583 129.285 171.753 129.11 171.872C128.935 171.992 128.726 172.056 128.512 172.056H128.544Z" fill="#C172FF"/>
<path d="M190.233 190.509C189.97 190.509 189.717 190.412 189.524 190.237C189.332 190.062 189.214 189.821 189.196 189.565C189.172 188.932 189.012 188.31 188.726 187.742C188.44 187.173 188.034 186.67 187.536 186.266C185.814 184.875 182.732 184.317 179.07 184.733C178.899 184.752 178.727 184.729 178.568 184.667C178.409 184.605 178.268 184.504 178.158 184.376C178.048 184.247 177.972 184.094 177.938 183.929C177.903 183.765 177.911 183.595 177.96 183.434C178.457 181.825 178.581 180.128 178.323 178.466C178.065 176.804 177.431 175.219 176.468 173.826C175.505 172.434 174.237 171.269 172.756 170.417C171.275 169.565 169.618 169.046 167.906 168.899C167.631 168.875 167.377 168.745 167.2 168.538C167.023 168.33 166.937 168.062 166.962 167.793C166.987 167.524 167.12 167.275 167.332 167.102C167.544 166.929 167.818 166.845 168.093 166.869C169.987 167.03 171.825 167.577 173.489 168.475C175.154 169.374 176.608 170.603 177.757 172.084C178.906 173.565 179.726 175.265 180.163 177.075C180.6 178.885 180.645 180.764 180.294 182.592C182.867 182.46 186.426 182.724 188.853 184.693C189.571 185.271 190.156 185.99 190.573 186.802C190.989 187.615 191.227 188.504 191.271 189.413C191.281 189.546 191.264 189.68 191.22 189.807C191.177 189.934 191.109 190.051 191.019 190.152C190.929 190.253 190.82 190.335 190.698 190.395C190.575 190.454 190.442 190.49 190.306 190.499L190.233 190.509Z" fill="#C172FF"/>
<path d="M179.91 191.524C179.657 191.526 179.411 191.437 179.22 191.275C179.029 191.112 178.906 190.886 178.873 190.641C178.556 188.53 177.593 186.563 176.112 184.998C174.63 183.432 172.699 182.342 170.573 181.871C170.439 181.843 170.312 181.79 170.2 181.714C170.087 181.639 169.991 181.542 169.917 181.43C169.842 181.317 169.792 181.192 169.767 181.06C169.743 180.929 169.745 180.794 169.774 180.663C169.802 180.532 169.857 180.408 169.934 180.298C170.011 180.188 170.11 180.094 170.225 180.022C170.34 179.949 170.468 179.899 170.602 179.875C170.737 179.851 170.875 179.853 171.008 179.882C173.545 180.454 175.846 181.762 177.61 183.634C179.374 185.507 180.519 187.857 180.896 190.377C180.931 190.643 180.857 190.913 180.69 191.126C180.523 191.339 180.276 191.478 180.004 191.514L179.91 191.524Z" fill="#C172FF"/>
<path d="M175.885 102.539C172.349 101.744 168.681 101.685 165.121 102.367C161.56 103.049 158.186 104.456 155.218 106.497C146.492 112.313 141.139 120.961 137.134 129.761C136.989 130.089 136.962 130.455 137.056 130.8C137.151 131.145 137.362 131.449 137.655 131.662C137.948 131.875 138.307 131.984 138.672 131.973C139.037 131.961 139.387 131.829 139.666 131.598C142.713 128.788 146.564 126.954 150.705 126.34C158.818 125.386 162.21 128.716 162.21 128.716L175.885 102.539Z" fill="#FFD0F8"/>
<path d="M138.618 133.019C138.052 133.016 137.503 132.834 137.051 132.501C136.55 132.159 136.19 131.654 136.032 131.077C135.875 130.499 135.93 129.886 136.19 129.345C139.385 122.321 144.78 112.222 154.637 105.655C157.73 103.524 161.25 102.06 164.965 101.36C168.68 100.66 172.505 100.74 176.186 101.595C176.33 101.638 176.464 101.712 176.577 101.811C176.689 101.91 176.779 102.032 176.838 102.168C176.897 102.305 176.925 102.452 176.92 102.6C176.915 102.749 176.877 102.894 176.808 103.026L163.134 129.203C163.06 129.347 162.951 129.473 162.818 129.568C162.684 129.663 162.529 129.726 162.366 129.751C162.204 129.774 162.039 129.76 161.884 129.708C161.729 129.657 161.588 129.571 161.474 129.456C161.474 129.456 158.258 126.503 150.829 127.426C146.896 127.998 143.239 129.746 140.361 132.43C139.871 132.826 139.252 133.035 138.618 133.019ZM170.324 102.924C165.137 102.924 160.072 104.464 155.799 107.34C146.389 113.602 141.18 123.377 138.078 130.167C138.02 130.288 138.008 130.424 138.044 130.553C138.08 130.681 138.162 130.793 138.275 130.867C138.372 130.952 138.498 130.999 138.628 130.999C138.758 130.999 138.884 130.952 138.981 130.867C142.173 127.904 146.225 125.982 150.58 125.366C156.577 124.656 160.177 126.188 161.837 127.213L174.349 103.28C173.02 103.047 171.674 102.928 170.324 102.924V102.924Z" fill="#C172FF"/>
<path d="M205.536 123.722C207.385 126.775 208.557 130.175 208.975 133.7C209.393 137.226 209.049 140.798 207.964 144.184C204.955 154.091 198.149 161.703 190.804 168.108C190.531 168.352 190.18 168.497 189.81 168.518C189.441 168.539 189.075 168.435 188.775 168.222C188.475 168.01 188.259 167.703 188.164 167.353C188.068 167.003 188.099 166.631 188.252 166.301C190.062 162.611 190.674 158.466 190.005 154.426C188.47 146.569 184.205 144.418 184.205 144.418L205.536 123.722Z" fill="#FFD0F8"/>
<path d="M189.756 169.559C189.188 169.554 188.635 169.373 188.179 169.042C187.686 168.7 187.33 168.201 187.173 167.63C187.015 167.059 187.067 166.453 187.318 165.915C189.056 162.417 189.646 158.478 189.009 154.639C187.608 147.442 183.822 145.362 183.749 145.341C183.604 145.267 183.478 145.161 183.383 145.031C183.288 144.9 183.226 144.75 183.202 144.591C183.177 144.433 183.192 144.271 183.243 144.119C183.295 143.967 183.383 143.83 183.5 143.717L204.831 123.021C204.939 122.916 205.069 122.834 205.212 122.784C205.356 122.733 205.509 122.713 205.661 122.727C205.812 122.741 205.958 122.788 206.089 122.863C206.22 122.938 206.332 123.041 206.418 123.164C208.361 126.337 209.593 129.878 210.035 133.552C210.477 137.226 210.118 140.95 208.981 144.479C205.588 155.644 197.392 163.764 191.52 168.839C191.045 169.287 190.416 169.544 189.756 169.559ZM185.834 144.316C187.328 145.554 189.912 148.447 191.022 154.253C191.737 158.5 191.096 162.86 189.185 166.737C189.127 166.85 189.113 166.981 189.148 167.103C189.182 167.225 189.262 167.33 189.372 167.397C189.474 167.484 189.605 167.532 189.74 167.532C189.876 167.532 190.007 167.484 190.109 167.397C195.784 162.444 203.71 154.618 206.958 143.951C208.88 137.787 208.293 131.136 205.319 125.386L185.834 144.316Z" fill="#C172FF"/>
<path d="M217.571 113.227C205.526 129.355 193.906 139.424 182.794 145.646L161.463 130.421C164.161 118.241 170.427 104.285 182.473 88.1663C186.811 82.3112 191.986 77.0951 197.838 72.6774C214.739 59.9899 231.142 59.0358 231.142 59.0358C231.142 59.0358 235.209 74.6161 227.978 94.2259C225.45 101.011 221.946 107.409 217.571 113.227V113.227Z" fill="#8C34FB"/>
<path d="M182.794 146.661C182.573 146.659 182.359 146.587 182.182 146.458L160.851 131.233C160.692 131.119 160.57 130.963 160.498 130.783C160.426 130.603 160.409 130.407 160.447 130.218C163.466 116.566 170.396 102.62 181.632 87.5878C186.029 81.6585 191.27 76.3744 197.195 71.8959C214.158 59.1576 230.395 58.0817 231.069 58.0513C231.305 58.044 231.536 58.1154 231.725 58.2538C231.913 58.3921 232.048 58.5892 232.107 58.8125C232.273 59.452 236.163 74.9104 228.911 94.5913C226.356 101.481 222.803 107.975 218.36 113.876V113.876C207.134 128.919 195.649 139.617 183.272 146.569C183.122 146.636 182.959 146.668 182.794 146.661V146.661ZM162.625 129.964L182.857 144.428C194.757 137.607 205.848 127.173 216.731 112.628C221.051 106.879 224.509 100.556 227.002 93.8503C231.089 83.0778 232.233 71.449 230.322 60.1117C218.702 61.7788 207.726 66.3751 198.471 73.4488C192.697 77.812 187.59 82.9592 183.303 88.7347C172.419 103.3 165.655 116.799 162.625 129.964Z" fill="#C172FF"/>
<path d="M178.572 155.298L153.34 137.262L161.484 130.411L182.774 145.625L178.572 155.298Z" fill="#C172FF"/>
<path d="M178.582 156.313C178.362 156.314 178.148 156.247 177.97 156.121L152.728 138.084C152.605 137.99 152.504 137.872 152.431 137.737C152.357 137.603 152.314 137.455 152.302 137.302C152.296 137.149 152.326 136.996 152.388 136.856C152.451 136.715 152.546 136.59 152.665 136.49L160.81 129.639C160.994 129.495 161.222 129.417 161.458 129.417C161.694 129.417 161.923 129.495 162.107 129.639L183.386 144.864C183.575 144.999 183.712 145.194 183.774 145.415C183.836 145.636 183.82 145.871 183.728 146.082L179.578 155.755C179.516 155.896 179.422 156.021 179.304 156.121C179.185 156.221 179.045 156.294 178.893 156.334C178.789 156.346 178.684 156.339 178.582 156.313V156.313ZM155.01 137.191L178.136 153.725L181.497 145.971L161.546 131.7L155.01 137.191Z" fill="#C172FF"/>
<path d="M201.117 110.263C207.357 110.263 212.415 105.314 212.415 99.2095C212.415 93.1049 207.357 88.1562 201.117 88.1562C194.877 88.1562 189.818 93.1049 189.818 99.2095C189.818 105.314 194.877 110.263 201.117 110.263Z" fill="#FFD0F8"/>
<path d="M201.096 111.278C198.324 111.272 195.635 110.354 193.463 108.671C191.29 106.988 189.76 104.638 189.119 102C188.478 99.3619 188.764 96.5897 189.93 94.1301C191.097 91.6705 193.076 89.6669 195.549 88.4423C198.021 87.2176 200.844 86.8433 203.56 87.3796C206.277 87.916 208.73 89.3318 210.524 91.3987C212.318 93.4656 213.348 96.0633 213.448 98.773C213.548 101.483 212.713 104.146 211.077 106.335C209.931 107.872 208.429 109.121 206.694 109.98C204.959 110.839 203.04 111.284 201.096 111.278V111.278ZM201.169 89.2118C198.729 89.2105 196.368 90.0607 194.512 91.6096C192.655 93.1584 191.424 95.3044 191.04 97.6616C190.656 100.019 191.144 102.433 192.417 104.47C193.689 106.506 195.662 108.032 197.982 108.773C200.301 109.514 202.815 109.421 205.071 108.511C207.326 107.601 209.176 105.934 210.288 103.809C211.399 101.684 211.7 99.241 211.135 96.9188C210.57 94.5966 209.177 92.5476 207.207 91.1403C205.453 89.8888 203.339 89.2136 201.169 89.2118V89.2118Z" fill="#C172FF"/>
<path d="M227.977 94.1954L197.89 72.647C214.791 59.9595 231.194 59.0054 231.194 59.0054C231.194 59.0054 235.209 74.5856 227.977 94.1954Z" fill="#FFD0F8"/>
<path d="M227.978 95.2104C227.758 95.2072 227.545 95.1401 227.365 95.0176L197.226 73.4691C197.097 73.3746 196.993 73.252 196.921 73.111C196.849 72.9701 196.811 72.8147 196.811 72.6571C196.811 72.4995 196.849 72.3441 196.921 72.2032C196.993 72.0622 197.097 71.9397 197.226 71.8451C214.189 59.1069 230.426 58.031 231.1 58.0005C231.336 57.9932 231.567 58.0646 231.756 58.203C231.944 58.3414 232.079 58.5384 232.138 58.7618C232.304 59.4012 236.195 74.8597 228.942 94.5405C228.889 94.6885 228.801 94.8223 228.686 94.9315C228.571 95.0407 228.431 95.1223 228.278 95.1698C228.181 95.1977 228.079 95.2114 227.978 95.2104V95.2104ZM199.581 72.6368L227.459 92.5714C231.172 82.1487 232.156 70.9821 230.322 60.0914C219.164 61.6928 208.595 66.0061 199.581 72.6368V72.6368Z" fill="#C172FF"/>
<path d="M190.342 117.495C191.106 116.472 190.88 115.038 189.837 114.292C188.793 113.546 187.328 113.771 186.564 114.794L161.704 148.073C160.94 149.096 161.166 150.529 162.209 151.275C163.253 152.021 164.718 151.797 165.482 150.774L190.342 117.495Z" fill="#8C34FB"/>
<path d="M163.601 152.73C162.978 152.728 162.368 152.557 161.838 152.236C161.308 151.916 160.879 151.459 160.598 150.915C160.316 150.371 160.194 149.762 160.245 149.155C160.295 148.547 160.516 147.965 160.882 147.473L185.782 114.191C186.039 113.837 186.366 113.538 186.744 113.311C187.122 113.085 187.543 112.935 187.982 112.871C188.643 112.767 189.321 112.858 189.93 113.133C190.538 113.407 191.049 113.853 191.397 114.413C191.746 114.972 191.916 115.621 191.886 116.276C191.856 116.93 191.627 117.561 191.229 118.089L166.329 151.37C165.8 152.079 165.005 152.553 164.119 152.69C163.947 152.713 163.774 152.727 163.601 152.73V152.73ZM188.501 114.861H188.293C188.124 114.888 187.961 114.948 187.815 115.037C187.669 115.126 187.542 115.242 187.442 115.378L162.542 148.66C162.441 148.795 162.368 148.948 162.328 149.11C162.287 149.272 162.28 149.44 162.306 149.605C162.332 149.77 162.391 149.929 162.479 150.071C162.568 150.214 162.685 150.338 162.823 150.437V150.437C163.102 150.637 163.451 150.721 163.793 150.669C164.136 150.618 164.443 150.436 164.649 150.163L189.549 116.881C189.693 116.692 189.781 116.468 189.803 116.233C189.824 115.999 189.779 115.763 189.671 115.552C189.563 115.341 189.398 115.164 189.193 115.04C188.988 114.916 188.752 114.851 188.511 114.851L188.501 114.861Z" fill="#C172FF"/>
<path d="M206.066 106.375C205.842 106.375 205.624 106.304 205.445 106.172C205.266 106.041 205.136 105.856 205.073 105.646C205.01 105.436 205.018 105.212 205.096 105.007C205.174 104.802 205.317 104.627 205.505 104.508C206.575 103.615 207.369 102.448 207.798 101.138C209.012 97.9306 206.501 95.18 206.398 95.048C206.21 94.8502 206.111 94.5877 206.122 94.3183C206.133 94.049 206.252 93.7948 206.455 93.6118C206.657 93.4287 206.925 93.3318 207.2 93.3422C207.476 93.3527 207.736 93.4698 207.923 93.6676C208.068 93.8199 211.409 97.4231 209.738 101.788C209.171 103.515 208.087 105.035 206.626 106.152C206.466 106.279 206.271 106.357 206.066 106.375V106.375Z" fill="#2B1A21"/>
<path d="M202.082 108.223C201.806 108.239 201.536 108.147 201.33 107.968C201.123 107.79 200.998 107.538 200.982 107.269C200.965 106.999 201.059 106.735 201.242 106.533C201.425 106.331 201.682 106.209 201.957 106.193C202.631 106.076 203.288 105.886 203.918 105.624C204.167 105.533 204.442 105.538 204.687 105.639C204.931 105.741 205.127 105.93 205.233 106.168C205.34 106.406 205.349 106.675 205.259 106.92C205.168 107.164 204.985 107.365 204.748 107.482C203.937 107.822 203.087 108.068 202.216 108.213L202.082 108.223Z" fill="#2B1A21"/>
<path d="M85.7674 125.843C85.5419 125.847 85.3212 125.779 85.1388 125.649C84.9564 125.519 84.8222 125.335 84.7565 125.124C84.6909 124.913 84.6973 124.686 84.7749 124.479C84.8524 124.272 84.9969 124.095 85.1864 123.976L90.0004 120.859C90.1141 120.785 90.2416 120.734 90.3757 120.708C90.5098 120.682 90.6478 120.682 90.7819 120.708C90.9159 120.735 91.0432 120.787 91.1566 120.861C91.27 120.936 91.3672 121.032 91.4425 121.144C91.5927 121.367 91.6464 121.64 91.592 121.903C91.5376 122.165 91.3795 122.396 91.152 122.544L86.338 125.671C86.1692 125.782 85.9708 125.842 85.7674 125.843V125.843Z" fill="#DFEAEF"/>
<path d="M88.3404 129.101C88.1705 129.102 88.0031 129.061 87.8529 128.983C87.7028 128.905 87.5745 128.792 87.4793 128.655C87.4033 128.543 87.3505 128.419 87.324 128.287C87.2975 128.156 87.2978 128.021 87.3248 127.89C87.3518 127.759 87.405 127.634 87.4813 127.524C87.5577 127.413 87.6557 127.318 87.7698 127.244L92.0754 124.442C92.3052 124.293 92.5862 124.239 92.8566 124.292C93.1271 124.346 93.3648 124.502 93.5175 124.727C93.6702 124.951 93.7254 125.226 93.6709 125.491C93.6165 125.755 93.4568 125.988 93.227 126.137L88.9214 128.939C88.7485 129.048 88.5463 129.105 88.3404 129.101Z" fill="#DFEAEF"/>
<path d="M90.7163 132.38C90.4946 132.378 90.2793 132.307 90.1019 132.177C89.9246 132.047 89.7945 131.865 89.7307 131.657C89.6669 131.449 89.6727 131.227 89.7474 131.023C89.8221 130.819 89.9616 130.643 90.1456 130.522L94.4513 127.721C94.564 127.638 94.6929 127.578 94.83 127.546C94.9671 127.513 95.1096 127.508 95.2487 127.531C95.3877 127.554 95.5206 127.605 95.639 127.68C95.7574 127.755 95.8589 127.853 95.9373 127.968C96.0158 128.083 96.0695 128.212 96.0951 128.347C96.1208 128.483 96.1178 128.623 96.0865 128.757C96.0552 128.892 95.9962 129.019 95.913 129.13C95.8299 129.242 95.7243 129.336 95.6029 129.406L91.2973 132.207C91.1255 132.32 90.9232 132.38 90.7163 132.38Z" fill="#DFEAEF"/>
<path d="M108.551 115.084C108.328 115.081 108.112 115.009 107.935 114.876C107.758 114.744 107.629 114.56 107.567 114.35C107.505 114.141 107.514 113.917 107.592 113.713C107.67 113.509 107.814 113.335 108.001 113.217L139.956 93.3936C140.071 93.3222 140.199 93.2738 140.334 93.251C140.468 93.2283 140.606 93.2316 140.738 93.2608C140.871 93.29 140.997 93.3446 141.109 93.4213C141.22 93.4981 141.315 93.5956 141.388 93.7082C141.461 93.8208 141.51 93.9464 141.533 94.0778C141.557 94.2091 141.553 94.3437 141.523 94.4737C141.494 94.6038 141.438 94.7268 141.359 94.8358C141.281 94.9448 141.181 95.0376 141.066 95.1089L109.111 114.932C108.943 115.034 108.749 115.087 108.551 115.084V115.084Z" fill="#DFEAEF"/>
<path d="M159.668 195.381C159.596 195.391 159.523 195.391 159.451 195.381C159.183 195.323 158.949 195.163 158.801 194.936C158.653 194.71 158.603 194.435 158.662 194.173C160.229 187.068 153.381 183.059 153.091 182.886C152.865 182.746 152.703 182.525 152.64 182.271C152.576 182.017 152.615 181.748 152.749 181.522C152.883 181.295 153.101 181.128 153.358 181.055C153.615 180.982 153.891 181.009 154.128 181.13C154.211 181.181 162.573 186.053 160.675 194.609C160.619 194.829 160.49 195.025 160.308 195.165C160.125 195.305 159.9 195.381 159.668 195.381V195.381Z" fill="#C172FF"/>
<path d="M243.79 161.47H238.47V176.142H235.528V161.47H230.255V159.079H243.79V161.47ZM250.294 176.376C248.489 176.376 247.024 175.81 245.899 174.677C244.782 173.536 244.223 172.021 244.223 170.13V169.778C244.223 168.513 244.466 167.384 244.95 166.392C245.442 165.392 246.13 164.614 247.013 164.06C247.895 163.505 248.88 163.228 249.966 163.228C251.692 163.228 253.024 163.778 253.962 164.88C254.907 165.982 255.38 167.54 255.38 169.556V170.704H247.095C247.181 171.751 247.528 172.579 248.138 173.189C248.755 173.798 249.528 174.103 250.458 174.103C251.763 174.103 252.825 173.575 253.645 172.521L255.181 173.986C254.673 174.743 253.993 175.333 253.141 175.755C252.298 176.169 251.348 176.376 250.294 176.376ZM249.954 165.513C249.173 165.513 248.54 165.786 248.056 166.333C247.579 166.88 247.274 167.642 247.141 168.618H252.567V168.407C252.505 167.454 252.251 166.736 251.806 166.251C251.36 165.759 250.743 165.513 249.954 165.513ZM262.809 174.103C263.52 174.103 264.11 173.896 264.579 173.482C265.048 173.068 265.298 172.556 265.329 171.946H268.013C267.981 172.736 267.735 173.474 267.274 174.161C266.813 174.841 266.188 175.38 265.399 175.778C264.61 176.177 263.759 176.376 262.845 176.376C261.071 176.376 259.665 175.802 258.626 174.653C257.587 173.505 257.067 171.919 257.067 169.896V169.603C257.067 167.673 257.583 166.13 258.614 164.974C259.645 163.81 261.052 163.228 262.833 163.228C264.341 163.228 265.567 163.669 266.513 164.552C267.466 165.427 267.966 166.579 268.013 168.009H265.329C265.298 167.282 265.048 166.685 264.579 166.216C264.118 165.747 263.528 165.513 262.809 165.513C261.888 165.513 261.177 165.849 260.677 166.521C260.177 167.185 259.923 168.196 259.915 169.556V170.013C259.915 171.388 260.161 172.415 260.653 173.095C261.153 173.767 261.872 174.103 262.809 174.103ZM272.97 164.845C273.899 163.767 275.075 163.228 276.497 163.228C279.2 163.228 280.571 164.771 280.61 167.857V176.142H277.763V167.962C277.763 167.087 277.571 166.47 277.188 166.111C276.813 165.743 276.259 165.56 275.524 165.56C274.384 165.56 273.532 166.068 272.97 167.083V176.142H270.122V158.142H272.97V164.845ZM292.821 178.38H282.075V176.142H292.821V178.38ZM293.794 169.708C293.794 167.755 294.247 166.189 295.153 165.009C296.059 163.821 297.274 163.228 298.798 163.228C300.141 163.228 301.227 163.696 302.056 164.634V158.142H304.903V176.142H302.325L302.184 174.829C301.333 175.861 300.196 176.376 298.774 176.376C297.29 176.376 296.087 175.778 295.165 174.583C294.251 173.388 293.794 171.763 293.794 169.708ZM296.641 169.954C296.641 171.243 296.888 172.251 297.38 172.978C297.88 173.696 298.587 174.056 299.501 174.056C300.665 174.056 301.516 173.536 302.056 172.497V167.083C301.532 166.068 300.688 165.56 299.524 165.56C298.602 165.56 297.891 165.927 297.391 166.661C296.891 167.388 296.641 168.486 296.641 169.954ZM313.458 176.376C311.653 176.376 310.188 175.81 309.063 174.677C307.946 173.536 307.388 172.021 307.388 170.13V169.778C307.388 168.513 307.63 167.384 308.114 166.392C308.606 165.392 309.294 164.614 310.177 164.06C311.059 163.505 312.044 163.228 313.13 163.228C314.856 163.228 316.188 163.778 317.126 164.88C318.071 165.982 318.544 167.54 318.544 169.556V170.704H310.259C310.345 171.751 310.692 172.579 311.302 173.189C311.919 173.798 312.692 174.103 313.622 174.103C314.927 174.103 315.989 173.575 316.809 172.521L318.345 173.986C317.837 174.743 317.157 175.333 316.306 175.755C315.462 176.169 314.513 176.376 313.458 176.376ZM313.118 165.513C312.337 165.513 311.704 165.786 311.22 166.333C310.743 166.88 310.438 167.642 310.306 168.618H315.731V168.407C315.669 167.454 315.415 166.736 314.97 166.251C314.524 165.759 313.907 165.513 313.118 165.513ZM325.071 172.532L327.755 163.462H330.696L326.302 176.142H323.829L319.399 163.462H322.352L325.071 172.532ZM331.821 169.708C331.821 167.739 332.282 166.169 333.204 164.997C334.134 163.818 335.364 163.228 336.895 163.228C338.341 163.228 339.477 163.732 340.306 164.739L340.434 163.462H343.001V175.755C343.001 177.419 342.481 178.732 341.442 179.693C340.411 180.653 339.016 181.134 337.259 181.134C336.329 181.134 335.419 180.939 334.528 180.548C333.645 180.165 332.973 179.661 332.513 179.036L333.86 177.325C334.735 178.364 335.813 178.884 337.095 178.884C338.04 178.884 338.786 178.626 339.333 178.111C339.88 177.603 340.153 176.853 340.153 175.861V175.005C339.333 175.919 338.239 176.376 336.872 176.376C335.388 176.376 334.173 175.786 333.227 174.607C332.29 173.427 331.821 171.794 331.821 169.708ZM334.657 169.954C334.657 171.228 334.915 172.232 335.431 172.966C335.954 173.693 336.677 174.056 337.598 174.056C338.747 174.056 339.598 173.564 340.153 172.579V167.001C339.614 166.04 338.77 165.56 337.622 165.56C336.684 165.56 335.954 165.931 335.431 166.673C334.915 167.415 334.657 168.509 334.657 169.954ZM348.966 176.142H346.118V163.462H348.966V176.142ZM345.942 160.169C345.942 159.732 346.079 159.368 346.352 159.079C346.634 158.79 347.032 158.646 347.548 158.646C348.063 158.646 348.462 158.79 348.743 159.079C349.024 159.368 349.165 159.732 349.165 160.169C349.165 160.599 349.024 160.958 348.743 161.247C348.462 161.528 348.063 161.669 347.548 161.669C347.032 161.669 346.634 161.528 346.352 161.247C346.079 160.958 345.942 160.599 345.942 160.169ZM358.716 166.064C358.341 166.001 357.954 165.97 357.556 165.97C356.251 165.97 355.372 166.47 354.919 167.47V176.142H352.071V163.462H354.79L354.86 164.88C355.548 163.778 356.501 163.228 357.72 163.228C358.126 163.228 358.462 163.282 358.727 163.392L358.716 166.064ZM363.544 176.142H360.696V158.142H363.544V176.142Z" fill="#2B1A21"/>
</svg>
