<svg width="120" height="111" viewBox="0 0 120 111" fill="none" xmlns="http://www.w3.org/2000/svg">
<path d="M112.383 52.6011C112.207 52.6011 112.039 52.5388 111.915 52.428C111.79 52.3172 111.721 52.1669 111.721 52.0101V49.6463C111.721 49.4896 111.79 49.3393 111.915 49.2284C112.039 49.1176 112.207 49.0554 112.383 49.0554C112.559 49.0554 112.727 49.1176 112.851 49.2284C112.975 49.3393 113.045 49.4896 113.045 49.6463V52.0101C113.045 52.1669 112.975 52.3172 112.851 52.428C112.727 52.5388 112.559 52.6011 112.383 52.6011Z" fill="#FFBC00"/>
<path d="M112.383 57.9788C112.207 57.9788 112.039 57.9165 111.915 57.8057C111.79 57.6949 111.721 57.5445 111.721 57.3878V55.024C111.721 54.8673 111.79 54.717 111.915 54.6061C112.039 54.4953 112.207 54.433 112.383 54.433C112.559 54.433 112.727 54.4953 112.851 54.6061C112.975 54.717 113.045 54.8673 113.045 55.024V57.3878C113.045 57.5445 112.975 57.6949 112.851 57.8057C112.727 57.9165 112.559 57.9788 112.383 57.9788Z" fill="#FFBC00"/>
<path d="M116.735 54.0962H114.085C113.909 54.0962 113.741 54.034 113.617 53.9231C113.493 53.8123 113.423 53.662 113.423 53.5053C113.423 53.3485 113.493 53.1982 113.617 53.0874C113.741 52.9766 113.909 52.9143 114.085 52.9143H116.735C116.91 52.9143 117.079 52.9766 117.203 53.0874C117.327 53.1982 117.397 53.3485 117.397 53.5053C117.397 53.662 117.327 53.8123 117.203 53.9231C117.079 54.034 116.91 54.0962 116.735 54.0962Z" fill="#FFBC00"/>
<path d="M110.707 54.0962H108.058C107.882 54.0962 107.714 54.034 107.589 53.9231C107.465 53.8123 107.395 53.662 107.395 53.5053C107.395 53.3485 107.465 53.1982 107.589 53.0874C107.714 52.9766 107.882 52.9143 108.058 52.9143H110.707C110.883 52.9143 111.051 52.9766 111.175 53.0874C111.3 53.1982 111.369 53.3485 111.369 53.5053C111.369 53.662 111.3 53.8123 111.175 53.9231C111.051 54.034 110.883 54.0962 110.707 54.0962Z" fill="#FFBC00"/>
<path d="M79.1722 6.01618C78.9966 6.01618 78.8281 5.95392 78.7039 5.8431C78.5796 5.73227 78.5099 5.58196 78.5099 5.42523V3.06141C78.5099 2.90468 78.5796 2.75437 78.7039 2.64354C78.8281 2.53272 78.9966 2.47046 79.1722 2.47046C79.3479 2.47046 79.5164 2.53272 79.6406 2.64354C79.7648 2.75437 79.8346 2.90468 79.8346 3.06141V5.42523C79.8346 5.58196 79.7648 5.73227 79.6406 5.8431C79.5164 5.95392 79.3479 6.01618 79.1722 6.01618Z" fill="#FFBC00"/>
<path d="M79.1722 11.3998C78.9966 11.3998 78.8281 11.3375 78.7039 11.2267C78.5796 11.1159 78.5099 10.9655 78.5099 10.8088V8.41545C78.5099 8.25872 78.5796 8.1084 78.7039 7.99758C78.8281 7.88675 78.9966 7.82449 79.1722 7.82449C79.3479 7.82449 79.5164 7.88675 79.6406 7.99758C79.7648 8.1084 79.8346 8.25872 79.8346 8.41545V10.8088C79.8346 10.9655 79.7648 11.1159 79.6406 11.2267C79.5164 11.3375 79.3479 11.3998 79.1722 11.3998V11.3998Z" fill="#FFBC00"/>
<path d="M83.5239 7.53493H80.8745C80.6988 7.53493 80.5304 7.47267 80.4061 7.36185C80.2819 7.25102 80.2121 7.10071 80.2121 6.94398C80.2121 6.78725 80.2819 6.63694 80.4061 6.52611C80.5304 6.41529 80.6988 6.35303 80.8745 6.35303H83.5239C83.6996 6.35303 83.8681 6.41529 83.9923 6.52611C84.1165 6.63694 84.1863 6.78725 84.1863 6.94398C84.1863 7.10071 84.1165 7.25102 83.9923 7.36185C83.8681 7.47267 83.6996 7.53493 83.5239 7.53493Z" fill="#FFBC00"/>
<path d="M77.4965 7.53493H74.847C74.6714 7.53493 74.5029 7.47267 74.3787 7.36185C74.2545 7.25102 74.1847 7.10071 74.1847 6.94398C74.1847 6.78725 74.2545 6.63694 74.3787 6.52611C74.5029 6.41529 74.6714 6.35303 74.847 6.35303H77.4965C77.6721 6.35303 77.8406 6.41529 77.9648 6.52611C78.089 6.63694 78.1588 6.78725 78.1588 6.94398C78.1588 7.10071 78.089 7.25102 77.9648 7.36185C77.8406 7.47267 77.6721 7.53493 77.4965 7.53493Z" fill="#FFBC00"/>
<path d="M116.86 35.623C116.685 35.623 116.516 35.5607 116.392 35.4499C116.268 35.3391 116.198 35.1888 116.198 35.032V30.6353C116.198 30.4786 116.268 30.3283 116.392 30.2175C116.516 30.1066 116.685 30.0444 116.86 30.0444C117.036 30.0444 117.205 30.1066 117.329 30.2175C117.453 30.3283 117.523 30.4786 117.523 30.6353V35.032C117.523 35.1888 117.453 35.3391 117.329 35.4499C117.205 35.5607 117.036 35.623 116.86 35.623Z" fill="#FFBC00"/>
<path d="M119.318 33.4246H114.416C114.241 33.4246 114.072 33.3624 113.948 33.2515C113.824 33.1407 113.754 32.9904 113.754 32.8337C113.754 32.6769 113.824 32.5266 113.948 32.4158C114.072 32.305 114.241 32.2427 114.416 32.2427H119.338C119.513 32.2427 119.682 32.305 119.806 32.4158C119.93 32.5266 120 32.6769 120 32.8337C120 32.9904 119.93 33.1407 119.806 33.2515C119.682 33.3624 119.513 33.4246 119.338 33.4246H119.318Z" fill="#FFBC00"/>
<path d="M59.4259 108.222L98.8003 86.1343C101.535 84.6004 102.358 81.379 100.638 78.9393L52.3901 10.4759C50.6707 8.03621 47.0602 7.30198 44.3257 8.83596L4.95125 30.9241C2.21676 32.4581 1.39381 35.6794 3.11315 38.1191L51.3615 106.583C53.0809 109.022 56.6914 109.756 59.4259 108.222Z" fill="#B6B7BD"/>
<path d="M56.3275 109.622C55.2246 109.625 54.1391 109.377 53.1729 108.902C52.2066 108.428 51.3913 107.742 50.8034 106.91L2.55057 38.4477C2.09386 37.8028 1.7843 37.0838 1.63965 36.3319C1.495 35.58 1.51809 34.8101 1.70762 34.0662C1.89714 33.3223 2.24936 32.6191 2.74409 31.9969C3.23882 31.3747 3.86633 30.8457 4.59064 30.4403L43.9679 8.34454C45.43 7.52685 47.196 7.25989 48.8785 7.6022C50.5609 7.94452 52.0226 8.86816 52.9428 10.1706L101.202 78.6326C102.123 79.9338 102.427 81.5078 102.049 83.0091C101.67 84.5104 100.639 85.8162 99.1821 86.64L59.8049 108.736C58.764 109.321 57.5576 109.628 56.3275 109.622V109.622ZM47.4254 8.64002C46.452 8.63754 45.4982 8.8836 44.6766 9.34916L5.29936 31.439C4.72274 31.7619 4.22313 32.1831 3.8291 32.6785C3.43508 33.1738 3.15437 33.7336 3.00303 34.3258C2.8517 34.9181 2.83271 35.5311 2.94715 36.1299C3.06158 36.7286 3.30721 37.3014 3.66996 37.8154L51.9228 106.277C52.6562 107.316 53.8214 108.052 55.1625 108.324C56.5037 108.597 57.9112 108.384 59.0763 107.731L98.4535 85.6413C99.0296 85.3179 99.5286 84.8964 99.922 84.4008C100.315 83.9052 100.595 83.3454 100.746 82.7532C100.897 82.161 100.915 81.5481 100.8 80.9496C100.685 80.351 100.439 79.7786 100.076 79.2649L51.8234 10.797C51.3558 10.134 50.7067 9.58813 49.9372 9.21078C49.1678 8.83342 48.3034 8.637 47.4254 8.64002V8.64002Z" fill="#B6B7BD"/>
<path d="M65.1439 104.32L104.678 82.3269C107.424 80.7995 108.262 77.5755 106.55 75.1259L58.5084 6.38467C56.7965 3.93507 53.1829 3.18747 50.4373 4.71487L10.9031 26.7082C8.15752 28.2356 7.3196 31.4596 9.03156 33.9092L57.0728 102.65C58.7847 105.1 62.3983 105.848 65.1439 104.32Z" fill="#E0E5E8"/>
<path d="M62.4609 106.183C61.3575 106.184 60.2719 105.935 59.3057 105.46C58.3395 104.984 57.5244 104.298 56.9368 103.464L8.68402 35.0025C8.2276 34.3572 7.91844 33.6379 7.77429 32.8858C7.63013 32.1337 7.65381 31.3636 7.84395 30.6196C8.0341 29.8757 8.38698 29.1726 8.88235 28.5506C9.37773 27.9286 10.0059 27.4 10.7307 26.9951L50.1013 4.90521C51.564 4.08565 53.3316 3.81762 55.0156 4.16001C56.6997 4.5024 58.1626 5.4272 59.0829 6.73126L107.336 75.1933C108.246 76.4954 108.541 78.0658 108.158 79.5617C107.774 81.0575 106.743 82.3572 105.289 83.177L65.9118 105.267L65.5608 104.77L65.9118 105.267C64.8818 105.857 63.6852 106.175 62.4609 106.183V106.183ZM53.5588 5.17114C52.5859 5.17159 51.633 5.41742 50.81 5.88028L11.4328 27.976C10.8555 28.2984 10.3552 28.7194 9.96072 29.2147C9.5662 29.71 9.28518 30.2699 9.13379 30.8623C8.9824 31.4548 8.96363 32.068 9.07854 32.6669C9.19345 33.2659 9.43978 33.8387 9.8034 34.3524L58.0629 102.814C58.7951 103.852 59.959 104.588 61.2991 104.861C62.6392 105.133 64.0457 104.92 65.2097 104.268L104.587 82.1724C105.75 81.5192 106.575 80.4806 106.881 79.2851C107.186 78.0895 106.947 76.8346 106.216 75.796L57.9569 7.35767C57.5968 6.84278 57.1256 6.39687 56.5708 6.04585C56.0159 5.69484 55.3883 5.44572 54.7246 5.31297C54.3436 5.22488 53.9523 5.17727 53.5588 5.17114V5.17114Z" fill="#B6B7BD"/>
<path d="M59.1429 94.6019L97.4352 73.1209C98.8659 72.3183 99.2965 70.6329 98.3969 69.3564L60.1437 15.0759C59.2441 13.7994 57.355 13.4152 55.9243 14.2179L17.6321 35.6989C16.2013 36.5015 15.7707 38.1869 16.6703 39.4634L54.9235 93.7439C55.8231 95.0204 57.7122 95.4046 59.1429 94.6019Z" fill="#972FFF"/>
<path d="M57.5197 95.6225C56.8902 95.6238 56.2707 95.4825 55.7192 95.2116C55.1677 94.9408 54.7024 94.5494 54.3669 94.0742L16.1024 39.7892C15.8424 39.4203 15.6665 39.0093 15.5847 38.5796C15.5029 38.15 15.5168 37.7102 15.6257 37.2854C15.7346 36.8605 15.9363 36.459 16.2193 36.1038C16.5022 35.7486 16.8609 35.4466 17.2748 35.2152L55.5724 13.7282C56.4072 13.2607 57.4157 13.1076 58.3767 13.3026C59.3378 13.4976 60.1729 14.0247 60.699 14.7682L98.9635 69.0532C99.4851 69.7992 99.6546 70.6989 99.4349 71.556C99.2152 72.4131 98.6243 73.1577 97.7911 73.6272L59.4936 95.1202C58.902 95.4506 58.2176 95.6247 57.5197 95.6225V95.6225ZM57.5462 14.3959C57.0958 14.3969 56.6549 14.5116 56.2745 14.7269L17.9769 36.2139C17.7093 36.3633 17.4775 36.5585 17.2949 36.7882C17.1123 37.0179 16.9824 37.2775 16.9128 37.5522C16.8432 37.8269 16.8353 38.1112 16.8895 38.3886C16.9436 38.6661 17.0589 38.9312 17.2284 39.1687L55.4664 93.4478C55.807 93.9275 56.3468 94.2672 56.9676 94.3924C57.5884 94.5176 58.2395 94.418 58.7782 94.1156L97.0758 72.6285C97.3434 72.4791 97.5752 72.284 97.7578 72.0543C97.9405 71.8246 98.0703 71.5649 98.1399 71.2902C98.2095 71.0155 98.2174 70.7313 98.1632 70.4538C98.1091 70.1764 97.9939 69.9113 97.8243 69.6737L59.5797 15.4005C59.4127 15.1624 59.1945 14.9561 58.9375 14.7938C58.6805 14.6315 58.39 14.5164 58.0827 14.455C57.9074 14.415 57.7271 14.3952 57.5462 14.3959V14.3959Z" fill="#B6B7BD"/>
<path d="M41.9543 17.5753C42.4738 17.5753 42.8949 17.1995 42.8949 16.7361C42.8949 16.2726 42.4738 15.8969 41.9543 15.8969C41.4349 15.8969 41.0137 16.2726 41.0137 16.7361C41.0137 17.1995 41.4349 17.5753 41.9543 17.5753Z" fill="#B6B7BD"/>
<path d="M25.4152 26.605C25.271 26.6054 25.1305 26.5639 25.0152 26.4866C24.8999 26.4093 24.816 26.3005 24.7763 26.1768C24.7366 26.0531 24.7432 25.9213 24.7952 25.8012C24.8471 25.6812 24.9416 25.5796 25.0641 25.5118L37.7947 18.3671C37.8686 18.326 37.9509 18.2983 38.0369 18.2855C38.1228 18.2728 38.2107 18.2752 38.2956 18.2928C38.3805 18.3104 38.4607 18.3427 38.5315 18.3879C38.6024 18.4331 38.6626 18.4903 38.7087 18.5562C38.7548 18.6222 38.7859 18.6956 38.8002 18.7723C38.8145 18.849 38.8117 18.9274 38.7921 19.0032C38.7724 19.0789 38.7362 19.1504 38.6855 19.2137C38.6348 19.2769 38.5707 19.3306 38.4968 19.3718L25.7662 26.5164C25.6608 26.5747 25.5392 26.6054 25.4152 26.605Z" fill="#B6B7BD"/>
<path d="M81.5832 92.0709C83.7708 92.0709 85.5441 90.4887 85.5441 88.537C85.5441 86.5853 83.7708 85.0031 81.5832 85.0031C79.3957 85.0031 77.6223 86.5853 77.6223 88.537C77.6223 90.4887 79.3957 92.0709 81.5832 92.0709Z" fill="#B6B7BD"/>
<path d="M22.2491 64.4674C22.1069 64.4659 21.9689 64.4235 21.8558 64.3465C21.7426 64.2695 21.6603 64.1621 21.6209 64.0401C21.5815 63.9181 21.5872 63.7881 21.6371 63.6692C21.687 63.5503 21.7785 63.449 21.8981 63.3801L24.9913 61.6427C25.0647 61.5948 25.1484 61.5609 25.2371 61.5431C25.3259 61.5253 25.4178 61.524 25.5071 61.5393C25.5964 61.5546 25.6813 61.5861 25.7564 61.632C25.8314 61.6778 25.8951 61.7369 25.9434 61.8057C25.9918 61.8744 26.0237 61.9513 26.0373 62.0316C26.0508 62.1118 26.0457 62.1937 26.0223 62.2721C25.9988 62.3505 25.9575 62.4237 25.9009 62.4873C25.8443 62.5508 25.7737 62.6033 25.6934 62.6414L22.6002 64.3788C22.4948 64.4371 22.3731 64.4678 22.2491 64.4674V64.4674Z" fill="#B6B7BD"/>
<path d="M93.5852 70.767C93.4743 70.7669 93.3653 70.7419 93.2681 70.6944C93.1709 70.6469 93.0886 70.5784 93.0288 70.4952L82.8814 56.1705C82.7875 56.038 82.7563 55.8777 82.7948 55.7248C82.8333 55.5718 82.9383 55.4388 83.0868 55.3549C83.2352 55.2711 83.4149 55.2433 83.5863 55.2776C83.7577 55.312 83.9068 55.4057 84.0008 55.5381L94.1482 69.851C94.1947 69.9166 94.2263 69.9897 94.2412 70.0662C94.2561 70.1427 94.2539 70.221 94.2348 70.2967C94.2158 70.3725 94.1802 70.4441 94.1301 70.5076C94.08 70.571 94.0163 70.625 93.9428 70.6666C93.8357 70.7278 93.7123 70.7625 93.5852 70.767V70.767Z" fill="#FFBC00"/>
<path d="M30.0782 49.4395C29.9674 49.4394 29.8584 49.4144 29.7612 49.3669C29.664 49.3194 29.5817 49.2509 29.5218 49.1677L27.4884 46.3488C27.4403 46.2832 27.4073 46.2097 27.3914 46.1326C27.3755 46.0555 27.3769 45.9763 27.3956 45.8997C27.4143 45.8236 27.4497 45.7515 27.4997 45.6876C27.5497 45.6237 27.6134 45.5692 27.6871 45.5274L61.6661 26.3746C61.8132 26.292 61.9907 26.2644 62.1605 26.2975C62.3302 26.3307 62.4786 26.422 62.5735 26.5519L71.0252 37.8746C71.0794 37.9388 71.1183 38.0122 71.1395 38.0903C71.1608 38.1684 71.164 38.2495 71.1489 38.3287C71.1338 38.408 71.1008 38.4836 71.0518 38.5511C71.0028 38.6185 70.9389 38.6764 70.864 38.721C70.7892 38.7657 70.7049 38.7963 70.6163 38.8109C70.5277 38.8255 70.4367 38.8238 70.3489 38.806C70.2611 38.7882 70.1782 38.7545 70.1055 38.7072C70.0327 38.6598 69.9715 38.5997 69.9257 38.5305L61.8317 27.6865L28.9721 46.207L30.6412 48.5294C30.7358 48.6612 30.768 48.821 30.7308 48.9739C30.6935 49.1267 30.5899 49.2602 30.4425 49.345C30.334 49.4075 30.2074 49.4404 30.0782 49.4395V49.4395Z" fill="#FFBC00"/>
<path d="M46.4981 64.2133C46.4073 64.2131 46.3175 64.1961 46.2343 64.1636C46.1511 64.1311 46.0763 64.0836 46.0145 64.0242C45.8955 63.9096 45.8321 63.7576 45.8383 63.6015C45.8445 63.4453 45.9198 63.2977 46.0477 63.191L72.2307 41.3257C72.3589 41.2183 72.5297 41.1608 72.7055 41.1658C72.8813 41.1708 73.0476 41.2379 73.1679 41.3523C73.2883 41.4667 73.3527 41.6191 73.3471 41.7759C73.3416 41.9327 73.2664 42.0811 73.1381 42.1885L46.9485 64.0538C46.8263 64.1558 46.6654 64.2128 46.4981 64.2133Z" fill="#B6B7BD"/>
<path d="M68.442 74.6791C68.3282 74.6788 68.2165 74.6524 68.1175 74.6023C68.0413 74.5647 67.9742 74.5141 67.9201 74.4533C67.8659 74.3925 67.8256 74.3229 67.8016 74.2482C67.7776 74.1736 67.7704 74.0955 67.7802 74.0183C67.7901 73.9412 67.8169 73.8665 67.8591 73.7986L83.2855 49.3331C83.3733 49.1968 83.5182 49.0971 83.6884 49.0561C83.8586 49.0151 84.0401 49.0361 84.1929 49.1145C84.3457 49.1928 84.4574 49.3222 84.5034 49.474C84.5493 49.6258 84.5258 49.7877 84.438 49.9241L69.005 74.3896C68.947 74.4769 68.8647 74.5495 68.7661 74.6002C68.6674 74.6509 68.5558 74.6781 68.442 74.6791Z" fill="#B6B7BD"/>
<path d="M57.8178 54.7581C57.7076 54.7586 57.599 54.7345 57.5018 54.688C57.4047 54.6416 57.322 54.5743 57.2614 54.4922C56.5919 53.4953 55.6901 52.6386 54.617 51.9799C53.5439 51.3212 52.3246 50.8761 51.0419 50.6746C47.5314 50.1427 43.1267 51.4133 39.2585 54.0726C39.1662 54.1376 39.0563 54.1795 38.9399 54.194C38.8235 54.2085 38.7048 54.1952 38.5961 54.1553C38.4894 54.1177 38.3954 54.056 38.3234 53.9762C38.2514 53.8965 38.2039 53.8014 38.1855 53.7003C37.9477 52.6273 37.3733 51.6366 36.529 50.8436C35.6847 50.0505 34.6053 49.4878 33.4165 49.2208C32.193 48.9695 30.9223 48.9631 29.6957 49.2022C28.4691 49.4413 27.3171 49.92 26.3226 50.6037C26.2522 50.6496 26.1724 50.6827 26.0876 50.701C26.0028 50.7194 25.9149 50.7226 25.8287 50.7105C25.7425 50.6984 25.6599 50.6713 25.5855 50.6307C25.5112 50.59 25.4465 50.5367 25.3953 50.4737C25.2927 50.348 25.2498 50.1912 25.2758 50.0375C25.3018 49.8837 25.3948 49.7453 25.5344 49.6522C26.6898 48.8654 28.0257 48.316 29.4466 48.0433C30.8675 47.7705 32.3385 47.7811 33.7543 48.0744C35.0164 48.3704 36.178 48.9378 37.1375 49.7269C38.097 50.516 38.8253 51.5028 39.2585 52.6011C43.2326 50.0777 47.5843 48.949 51.2538 49.5045C52.7188 49.7322 54.112 50.2379 55.3392 50.9872C56.5665 51.7365 57.5992 52.7121 58.3675 53.848C58.4317 53.9372 58.4678 54.0402 58.472 54.1461C58.4762 54.2521 58.4484 54.3571 58.3915 54.4501C58.3346 54.5432 58.2508 54.6208 58.1486 54.675C58.0465 54.7292 57.93 54.7579 57.8112 54.7581H57.8178Z" fill="#B6B7BD"/>
<path d="M49.5052 66.4058C49.3473 66.4058 49.1946 66.3555 49.0746 66.2639C42.9876 61.69 33.953 64.2902 33.8404 64.3138C33.6744 64.3625 33.4935 64.3507 33.3372 64.281C33.1808 64.2113 33.0617 64.0892 33.0058 63.9415C32.9778 63.8678 32.9663 63.7898 32.9721 63.7122C32.9779 63.6345 33.0009 63.5586 33.0396 63.4889C33.0784 63.4191 33.1322 63.3569 33.1981 63.3058C33.2639 63.2547 33.3403 63.2156 33.4231 63.191C33.8205 63.0787 43.2459 60.3603 49.9092 65.3598C50.0142 65.4374 50.0898 65.5421 50.1257 65.6595C50.1615 65.7769 50.1559 65.9013 50.1095 66.0158C50.0631 66.1302 49.9783 66.2291 49.8666 66.2989C49.7548 66.3687 49.6217 66.406 49.4853 66.4058H49.5052Z" fill="#B6B7BD"/>
<path d="M88.889 77.1493C88.7211 77.1496 88.5593 77.0931 88.4363 76.9911C88.3134 76.889 88.2384 76.7491 88.2267 76.5997C88.2117 76.231 88.1095 75.8693 87.9269 75.5383C87.7442 75.2073 87.4853 74.9145 87.1669 74.6791C86.0674 73.8695 84.1002 73.5445 81.762 73.7868C81.6533 73.7977 81.5431 73.7844 81.4415 73.748C81.3399 73.7117 81.25 73.6535 81.1798 73.5785C81.1096 73.5036 81.0613 73.4143 81.0392 73.3186C81.0171 73.223 81.022 73.1239 81.0533 73.0303C81.3707 72.0934 81.4499 71.1052 81.2852 70.1375C81.1205 69.1698 80.716 68.2471 80.1012 67.4365C79.4864 66.6259 78.6767 65.9478 77.7312 65.4515C76.7856 64.9553 75.7279 64.6534 74.6351 64.5679C74.4594 64.5538 74.2972 64.478 74.1842 64.3572C74.0711 64.2364 74.0165 64.0805 74.0323 63.9237C74.0481 63.767 74.1331 63.6223 74.2685 63.5214C74.4039 63.4206 74.5786 63.3719 74.7543 63.386C75.9633 63.4796 77.1368 63.7982 78.1994 64.3211C79.2621 64.844 80.1901 65.5596 80.9239 66.4219C81.6577 67.2843 82.1809 68.2742 82.4599 69.3279C82.7389 70.3816 82.7674 71.4757 82.5436 72.5398C84.1863 72.463 86.4582 72.6167 88.0081 73.7631C88.466 74.0998 88.8398 74.5181 89.1056 74.9914C89.3714 75.4647 89.5233 75.9823 89.5514 76.511C89.5577 76.5887 89.5467 76.6667 89.5192 76.7405C89.4916 76.8144 89.4479 76.8827 89.3907 76.9414C89.3334 77.0002 89.2638 77.0483 89.1856 77.0829C89.1075 77.1176 89.0225 77.1381 88.9354 77.1434L88.889 77.1493Z" fill="#B6B7BD"/>
<path d="M82.2986 77.7402C82.1368 77.7415 81.9802 77.6899 81.8582 77.5952C81.7362 77.5004 81.6572 77.3692 81.6362 77.2261C81.4339 75.9973 80.8194 74.8519 79.8737 73.9405C78.9279 73.0292 77.695 72.3946 76.3373 72.1203C76.252 72.1041 76.1711 72.0731 76.0992 72.029C76.0273 71.9849 75.966 71.9285 75.9186 71.8632C75.8712 71.7979 75.8387 71.7248 75.8231 71.6482C75.8074 71.5717 75.8089 71.4931 75.8273 71.417C75.8454 71.3409 75.8802 71.2687 75.9296 71.2046C75.9791 71.1405 76.0422 71.0857 76.1155 71.0434C76.1887 71.0011 76.2706 70.9722 76.3564 70.9582C76.4422 70.9442 76.5303 70.9455 76.6155 70.962C78.2349 71.2951 79.7039 72.0566 80.8301 73.1469C81.9564 74.2371 82.6875 75.6053 82.9278 77.0725C82.9504 77.2276 82.9031 77.3844 82.7963 77.5084C82.6895 77.6325 82.532 77.7137 82.3582 77.7343L82.2986 77.7402Z" fill="#B6B7BD"/>
<path d="M79.7286 25.9314C77.4712 25.4684 75.1299 25.4343 72.8567 25.8314C70.5836 26.2285 68.4295 27.0478 66.5344 28.2361C60.964 31.6223 57.5462 36.6572 54.9895 41.7807C54.8969 41.9716 54.8794 42.1849 54.9398 42.3858C55.0001 42.5867 55.1349 42.7635 55.3222 42.8874C55.5094 43.0113 55.7381 43.0751 55.9711 43.0684C56.2042 43.0617 56.4278 42.9848 56.6057 42.8504C58.5511 41.2141 61.0097 40.1462 63.6532 39.7892C68.8328 39.2337 70.9987 41.1721 70.9987 41.1721L79.7286 25.9314Z" fill="#E0E5E8"/>
<path d="M55.9367 43.6777C55.5757 43.6756 55.225 43.5699 54.9365 43.3763C54.617 43.1768 54.3866 42.883 54.286 42.5468C54.1854 42.2106 54.2211 41.8535 54.3868 41.5384C56.4268 37.449 59.8711 31.569 66.1635 27.7456C68.1383 26.505 70.3859 25.6527 72.7575 25.2452C75.1291 24.8377 77.5707 24.8843 79.9207 25.3818C80.0132 25.4069 80.0985 25.4498 80.1705 25.5075C80.2424 25.5652 80.2993 25.6363 80.3372 25.7157C80.3751 25.7951 80.393 25.881 80.3897 25.9672C80.3864 26.0535 80.362 26.1381 80.3181 26.215L71.5882 41.4557C71.5409 41.5399 71.4718 41.6128 71.3865 41.6683C71.3013 41.7238 71.2024 41.7603 71.0981 41.7748C70.9947 41.7884 70.8892 41.7799 70.7902 41.7501C70.6912 41.7203 70.6015 41.6701 70.5285 41.6034C70.5285 41.6034 68.4751 39.8838 63.7326 40.4215C61.2214 40.7544 58.887 41.772 57.0494 43.3349C56.7369 43.565 56.3418 43.6867 55.9367 43.6777ZM76.1784 26.1559C72.867 26.1558 69.6335 27.0521 66.9054 28.7266C60.8978 32.3727 57.5727 38.0636 55.5923 42.0171C55.5553 42.0873 55.5476 42.167 55.5707 42.2418C55.5938 42.3165 55.6461 42.3815 55.7181 42.4249C55.78 42.4743 55.8602 42.5016 55.9433 42.5016C56.0264 42.5016 56.1066 42.4743 56.1685 42.4249C58.2064 40.6998 60.7935 39.5808 63.5737 39.2219C67.4021 38.8082 69.7005 39.7006 70.7603 40.2974L78.7483 26.3627C77.9001 26.2272 77.0401 26.158 76.1784 26.1559V26.1559Z" fill="#B6B7BD"/>
<path d="M98.6588 38.2645C99.8391 40.0423 100.587 42.0218 100.854 44.0743C101.121 46.1268 100.901 48.2064 100.209 50.1782C98.2879 55.9459 93.9428 60.378 89.2533 64.1069C89.079 64.2494 88.8549 64.3338 88.619 64.346C88.383 64.3581 88.1495 64.2972 87.958 64.1736C87.7665 64.0499 87.6287 63.8711 87.5678 63.6674C87.507 63.4636 87.5268 63.2473 87.6239 63.055C88.7799 60.9064 89.1706 58.4935 88.7433 56.1409C87.763 51.5669 85.0407 50.3141 85.0407 50.3141L98.6588 38.2645Z" fill="#E0E5E8"/>
<path d="M88.5844 64.952C88.2215 64.9491 87.869 64.8436 87.5776 64.6506C87.2627 64.4519 87.0354 64.1613 86.935 63.829C86.8347 63.4967 86.8675 63.1435 87.0278 62.8305C88.1372 60.7935 88.5143 58.5005 88.1075 56.265C87.2133 52.0751 84.7957 50.8637 84.7493 50.8519C84.6566 50.8088 84.5766 50.7468 84.5158 50.671C84.4551 50.5951 84.4154 50.5074 84.3999 50.4152C84.3843 50.323 84.3935 50.2288 84.4266 50.1404C84.4597 50.0519 84.5158 49.9717 84.5903 49.9063L98.2084 37.8568C98.2772 37.7952 98.3603 37.7479 98.4519 37.7183C98.5435 37.6887 98.6413 37.6774 98.7383 37.6854C98.8348 37.6936 98.9282 37.7206 99.0117 37.7645C99.0953 37.8084 99.167 37.8682 99.2218 37.9395C100.462 39.7875 101.249 41.849 101.531 43.9881C101.813 46.1272 101.584 48.2953 100.858 50.3495C98.6919 56.85 93.4593 61.5777 89.7104 64.5324C89.4075 64.7936 89.0055 64.9434 88.5844 64.952ZM86.0806 50.255C87.0344 50.976 88.6837 52.6602 89.3924 56.0404C89.8491 58.5133 89.4397 61.0516 88.2201 63.3092C88.1826 63.3749 88.1741 63.4508 88.1961 63.5219C88.2182 63.5929 88.2693 63.6541 88.3393 63.6933C88.4044 63.744 88.488 63.7719 88.5744 63.7719C88.6609 63.7719 88.7444 63.744 88.8096 63.6933C92.4327 60.8094 97.4931 56.2532 99.5663 50.0422C100.794 46.4539 100.419 42.5811 98.5197 39.2337L86.0806 50.255Z" fill="#B6B7BD"/>
<path d="M106.342 32.1541C98.6522 41.5443 91.2338 47.4066 84.1399 51.0291L70.5218 42.1648C72.244 35.0734 76.2446 26.9478 83.9346 17.5634C86.7044 14.1545 90.0078 11.1176 93.7441 8.54547C104.534 1.15855 115.006 0.603058 115.006 0.603058C115.006 0.603058 117.602 9.6742 112.986 21.0914C111.372 25.0421 109.135 28.7672 106.342 32.1541V32.1541Z" fill="#8C34FB"/>
<path d="M84.1399 51.6201C83.9989 51.6189 83.862 51.5774 83.7491 51.5019L70.131 42.6376C70.0295 42.5712 69.9512 42.4804 69.9055 42.3757C69.8597 42.271 69.8484 42.1569 69.8727 42.0467C71.8002 34.0983 76.2247 25.9786 83.3981 17.2266C86.2051 13.7745 89.5507 10.698 93.3335 8.09048C104.163 0.674009 114.529 0.0475959 114.959 0.0298673C115.11 0.0256211 115.257 0.0672024 115.378 0.147763C115.498 0.228324 115.584 0.343061 115.622 0.473083C115.728 0.845383 118.212 9.84561 113.582 21.3042C111.951 25.3154 109.682 29.0967 106.846 32.5323V32.5323C99.6789 41.2903 92.3465 47.5189 84.4446 51.5669C84.3492 51.606 84.2448 51.6242 84.1399 51.6201V51.6201ZM71.2637 41.8989L84.1797 50.32C91.7769 46.3488 98.8575 40.2738 105.806 31.8054C108.563 28.4582 110.771 24.7768 112.363 20.8728C114.972 14.6008 115.702 7.83032 114.483 1.2295C107.064 2.20012 100.056 4.87616 94.1482 8.99464C90.462 11.535 87.2013 14.5318 84.4645 17.8944C77.5163 26.3746 73.1978 34.2343 71.2637 41.8989Z" fill="#B6B7BD"/>
<path d="M81.4441 56.6491L65.3356 46.1479L70.5351 42.1589L84.1267 51.0173L81.4441 56.6491Z" fill="#B6B7BD"/>
<path d="M81.4507 57.2401C81.3104 57.2405 81.1736 57.2012 81.06 57.1278L64.9448 46.6265C64.8665 46.5717 64.802 46.5029 64.7552 46.4246C64.7085 46.3462 64.6805 46.26 64.6732 46.1715C64.6693 46.0822 64.6881 45.9932 64.7282 45.9114C64.7684 45.8295 64.8288 45.7568 64.905 45.6987L70.1046 41.7098C70.222 41.6259 70.368 41.5802 70.5185 41.5802C70.669 41.5802 70.815 41.6259 70.9325 41.7098L84.5175 50.5741C84.6384 50.6529 84.7258 50.7659 84.7655 50.8947C84.8052 51.0234 84.7948 51.1604 84.736 51.2833L82.0866 56.9151C82.047 56.997 81.9871 57.0699 81.9113 57.1282C81.8356 57.1866 81.7461 57.2289 81.6495 57.2519C81.583 57.2589 81.5156 57.2549 81.4507 57.2401V57.2401ZM66.402 46.1065L81.1659 55.7331L83.312 51.2183L70.5748 42.9094L66.402 46.1065Z" fill="#B6B7BD"/>
<path d="M95.8372 30.4285C99.8209 30.4285 103.05 27.5472 103.05 23.993C103.05 20.4388 99.8209 17.5575 95.8372 17.5575C91.8535 17.5575 88.6241 20.4388 88.6241 23.993C88.6241 27.5472 91.8535 30.4285 95.8372 30.4285Z" fill="#E0E5E8"/>
<path d="M95.8239 31.0195C94.0545 31.0163 92.3379 30.4817 90.9507 29.5017C89.5635 28.5217 88.5866 27.1535 88.1775 25.6176C87.7684 24.0817 87.9509 22.4677 88.6956 21.0357C89.4403 19.6037 90.7039 18.4371 92.2825 17.7241C93.8611 17.0111 95.6629 16.7932 97.3974 17.1054C99.1318 17.4177 100.698 18.242 101.843 19.4454C102.988 20.6488 103.646 22.1613 103.71 23.7389C103.774 25.3165 103.24 26.8674 102.196 28.1415C101.464 29.0363 100.505 29.7636 99.3976 30.2639C98.2901 30.7641 97.0653 31.0231 95.8239 31.0195V31.0195ZM95.8703 18.1721C94.3126 18.1714 92.8057 18.6664 91.6205 19.5682C90.4352 20.47 89.6494 21.7194 89.4042 23.0918C89.1591 24.4643 89.4707 25.8697 90.283 27.0555C91.0953 28.2414 92.3551 29.1298 93.8359 29.5611C95.3167 29.9924 96.9213 29.9383 98.3614 29.4085C99.8015 28.8787 100.983 27.908 101.692 26.6709C102.402 25.4338 102.594 24.0113 102.233 22.6593C101.873 21.3073 100.983 20.1143 99.7252 19.2949C98.6057 18.5663 97.256 18.1732 95.8703 18.1721V18.1721Z" fill="#B6B7BD"/>
<path d="M112.986 21.0737L93.7772 8.52778C104.567 1.14085 115.039 0.585358 115.039 0.585358C115.039 0.585358 117.602 9.6565 112.986 21.0737Z" fill="#E0E5E8"/>
<path d="M112.986 21.6647C112.846 21.6628 112.71 21.6237 112.595 21.5524L93.3533 9.00643C93.2711 8.95139 93.2043 8.88001 93.1583 8.79795C93.1123 8.7159 93.0884 8.62541 93.0884 8.53367C93.0884 8.44193 93.1123 8.35144 93.1583 8.26938C93.2043 8.18733 93.2711 8.11595 93.3533 8.06091C104.183 0.644435 114.549 0.0180244 114.979 0.000295767C115.13 -0.00395048 115.277 0.0376309 115.398 0.118192C115.518 0.198752 115.604 0.313489 115.642 0.443511C115.748 0.815812 118.232 9.81604 113.602 21.2746C113.568 21.3608 113.512 21.4387 113.438 21.5023C113.364 21.5659 113.275 21.6133 113.178 21.641C113.115 21.6573 113.051 21.6652 112.986 21.6647V21.6647ZM94.8569 8.52185L112.654 20.1282C115.025 14.0599 115.653 7.55845 114.483 1.21766C107.359 2.15001 100.611 4.66133 94.8569 8.52185V8.52185Z" fill="#B6B7BD"/>
<path d="M88.9585 34.639C89.4463 34.0435 89.3018 33.2087 88.6358 32.7744C87.9698 32.3402 87.0345 32.4709 86.5467 33.0664L70.6755 52.4422C70.1877 53.0378 70.3321 53.8726 70.9981 54.3068C71.6641 54.7411 72.5995 54.6103 73.0873 54.0148L88.9585 34.639Z" fill="#8C34FB"/>
<path d="M71.8863 55.154C71.4886 55.1524 71.0992 55.0529 70.7609 54.8664C70.4226 54.6799 70.1486 54.4136 69.9691 54.097C69.7896 53.7804 69.7116 53.4257 69.7437 53.0721C69.7758 52.7185 69.9167 52.3796 70.1509 52.0929L86.0475 32.7155C86.2114 32.5096 86.4203 32.3354 86.6617 32.2034C86.903 32.0714 87.1717 31.9842 87.4517 31.9472C87.8739 31.8867 88.3068 31.9397 88.6952 32.0995C89.0835 32.2593 89.4097 32.5187 89.6321 32.8446C89.8545 33.1705 89.9631 33.5481 89.944 33.9292C89.9249 34.3104 89.779 34.6779 89.5249 34.9847L73.6283 54.3621C73.2903 54.7745 72.7831 55.0507 72.2175 55.1304C72.1077 55.1439 71.9971 55.1518 71.8863 55.154V55.154ZM87.7829 33.1055H87.6504C87.5421 33.1214 87.4384 33.1562 87.3452 33.2079C87.252 33.2597 87.1712 33.3273 87.1073 33.4069L71.2107 52.7843C71.1461 52.8626 71.0996 52.9515 71.0736 53.0459C71.0477 53.1403 71.0429 53.2384 71.0595 53.3345C71.0761 53.4306 71.1138 53.5228 71.1704 53.6058C71.2271 53.6889 71.3015 53.7611 71.3895 53.8184V53.8184C71.5679 53.9351 71.7908 53.9838 72.0094 53.9538C72.228 53.9239 72.4243 53.8178 72.5553 53.6589L88.4519 34.2815C88.5441 34.1718 88.6003 34.0413 88.6141 33.9046C88.6279 33.768 88.5988 33.6306 88.5301 33.5079C88.4613 33.3852 88.3556 33.2821 88.2248 33.2099C88.094 33.1378 87.9433 33.0996 87.7895 33.0996L87.7829 33.1055Z" fill="#B6B7BD"/>
<path d="M98.9966 28.1652C98.8538 28.1648 98.7149 28.1233 98.6007 28.0468C98.4865 27.9703 98.403 27.8629 98.3628 27.7406C98.3226 27.6183 98.3277 27.4877 98.3775 27.3683C98.4273 27.2488 98.519 27.1469 98.639 27.0778C99.3221 26.5581 99.8291 25.8787 100.103 25.1158C100.878 23.2484 99.2748 21.6469 99.2086 21.5701C99.0892 21.4549 99.0259 21.3021 99.0327 21.1453C99.0395 20.9885 99.1159 20.8405 99.245 20.7339C99.3741 20.6273 99.5454 20.5709 99.7212 20.577C99.897 20.5831 100.063 20.6512 100.182 20.7664C100.275 20.8551 102.408 22.9529 101.341 25.494C100.979 26.4996 100.287 27.3848 99.3543 28.0352C99.2522 28.1092 99.1277 28.1545 98.9966 28.1652V28.1652Z" fill="#972FFF"/>
<path d="M96.4532 29.2407C96.2775 29.2501 96.1048 29.1968 95.9732 29.0926C95.8415 28.9885 95.7616 28.8419 95.7511 28.6852C95.7405 28.5284 95.8002 28.3744 95.917 28.2569C96.0337 28.1394 96.198 28.0682 96.3737 28.0588C96.8036 27.991 97.2236 27.88 97.6255 27.7278C97.7843 27.6746 97.96 27.6777 98.1162 27.7366C98.2725 27.7955 98.3975 27.9056 98.4654 28.0443C98.5334 28.183 98.5391 28.3396 98.4814 28.4819C98.4238 28.6243 98.3071 28.7414 98.1554 28.8093C97.6375 29.0076 97.0949 29.1504 96.5393 29.2348L96.4532 29.2407Z" fill="#972FFF"/>
<path d="M22.1961 39.4996C22.0522 39.5019 21.9113 39.4623 21.7948 39.3867C21.6784 39.3111 21.5927 39.2038 21.5508 39.0809C21.5089 38.9579 21.513 38.8262 21.5625 38.7056C21.612 38.5849 21.7042 38.482 21.8252 38.4123L24.8986 36.5981C24.9711 36.5548 25.0525 36.5247 25.1382 36.5096C25.2238 36.4945 25.3119 36.4947 25.3975 36.51C25.483 36.5254 25.5643 36.5557 25.6367 36.5992C25.7091 36.6427 25.7711 36.6986 25.8192 36.7635C25.9151 36.8938 25.9494 37.0526 25.9147 37.2054C25.8799 37.3581 25.779 37.4924 25.6338 37.5791L22.5604 39.3992C22.4527 39.4638 22.326 39.4987 22.1961 39.4996V39.4996Z" fill="#FFBC00"/>
<path d="M23.8388 41.3966C23.7303 41.3968 23.6234 41.3731 23.5276 41.3278C23.4317 41.2825 23.3498 41.2168 23.289 41.1366C23.2405 41.0719 23.2068 40.9992 23.1899 40.9228C23.173 40.8464 23.1731 40.7678 23.1904 40.6915C23.2076 40.6152 23.2416 40.5426 23.2903 40.478C23.3391 40.4135 23.4017 40.3581 23.4745 40.3152L26.2233 38.6841C26.37 38.5972 26.5494 38.5657 26.722 38.5968C26.8947 38.6278 27.0465 38.7187 27.1439 38.8496C27.2414 38.9805 27.2767 39.1405 27.2419 39.2946C27.2071 39.4486 27.1052 39.584 26.9585 39.671L24.2097 41.3021C24.0993 41.3657 23.9702 41.3986 23.8388 41.3966Z" fill="#FFBC00"/>
<path d="M25.3556 43.3054C25.2141 43.3044 25.0766 43.263 24.9634 43.1873C24.8502 43.1115 24.7671 43.0054 24.7264 42.8845C24.6856 42.7636 24.6894 42.6342 24.737 42.5153C24.7847 42.3965 24.8738 42.2943 24.9913 42.2239L27.7401 40.5929C27.812 40.5446 27.8943 40.5099 27.9818 40.4909C28.0694 40.4719 28.1603 40.4691 28.2491 40.4826C28.3379 40.496 28.4227 40.5255 28.4983 40.5692C28.5739 40.6129 28.6387 40.6699 28.6888 40.7367C28.7389 40.8035 28.7731 40.8787 28.7895 40.9577C28.8059 41.0368 28.804 41.1179 28.7841 41.1963C28.7641 41.2747 28.7264 41.3486 28.6733 41.4135C28.6202 41.4784 28.5528 41.533 28.4753 41.5739L25.7265 43.2049C25.6169 43.2706 25.4877 43.3056 25.3556 43.3054Z" fill="#FFBC00"/>
<path d="M36.7415 33.2355C36.5993 33.2339 36.4613 33.1915 36.3482 33.1145C36.235 33.0376 36.1527 32.9301 36.1133 32.8082C36.0739 32.6862 36.0796 32.5561 36.1295 32.4372C36.1794 32.3184 36.2709 32.217 36.3905 32.1481L56.7911 20.6068C56.8646 20.5653 56.9466 20.5371 57.0323 20.5238C57.118 20.5106 57.2058 20.5125 57.2907 20.5295C57.3755 20.5465 57.4558 20.5783 57.527 20.623C57.5981 20.6677 57.6586 20.7244 57.7052 20.79C57.7517 20.8556 57.7833 20.9287 57.7982 21.0052C57.813 21.0816 57.8109 21.16 57.7918 21.2357C57.7727 21.3114 57.7372 21.3831 57.6871 21.4465C57.637 21.51 57.5733 21.564 57.4998 21.6055L37.0992 33.1468C36.9919 33.2062 36.8678 33.237 36.7415 33.2355V33.2355Z" fill="#FFBC00"/>
<path d="M69.3759 79.9859C69.3298 79.9917 69.283 79.9917 69.2368 79.9859C69.0657 79.952 68.9166 79.8589 68.8223 79.7271C68.7279 79.5953 68.696 79.4354 68.7334 79.2826C69.7336 75.146 65.362 72.8117 65.1766 72.7112C65.0324 72.6295 64.9292 72.5012 64.8886 72.3531C64.8479 72.2051 64.873 72.0487 64.9585 71.9168C65.044 71.7848 65.1833 71.6874 65.3474 71.645C65.5114 71.6025 65.6876 71.6182 65.8389 71.6889C65.8919 71.7184 71.2305 74.555 70.0184 79.5368C69.9829 79.6649 69.9004 79.7787 69.7839 79.8601C69.6675 79.9415 69.5239 79.9858 69.3759 79.9859V79.9859Z" fill="#B6B7BD"/>
</svg>
